<?xml version="1.0" encoding="utf-8"?>
<!-- Generator: Adobe Illustrator 21.1.0, SVG Export Plug-In . SVG Version: 6.00 Build 0)  -->
<svg version="1.1" id="レイヤー_1" xmlns="http://www.w3.org/2000/svg" xmlns:xlink="http://www.w3.org/1999/xlink" x="0px"
	 y="0px" viewBox="0 0 253 93" style="enable-background:new 0 0 253 93;" xml:space="preserve">
<style type="text/css">
	.st0{fill:none;}
	.st1{fill:url(#SVGID_1_);}
	.st2{fill:url(#SVGID_2_);}
	.st3{fill:url(#SVGID_3_);}
	.st4{fill:url(#SVGID_4_);}
	.st5{fill:url(#SVGID_5_);}
	.st6{fill:url(#SVGID_6_);}
	.st7{fill:url(#SVGID_7_);}
	.st8{fill:url(#SVGID_8_);}
	.st9{fill:url(#SVGID_9_);}
	.st10{fill:url(#SVGID_10_);}
	.st11{fill:url(#SVGID_11_);}
	.st12{fill:url(#SVGID_12_);}
	.st13{fill:url(#SVGID_13_);}
	.st14{fill:url(#SVGID_14_);}
	.st15{fill:url(#SVGID_15_);}
	.st16{fill:url(#SVGID_16_);}
	.st17{fill:url(#SVGID_17_);}
	.st18{fill:url(#SVGID_18_);}
	.st19{fill:url(#SVGID_19_);}
	.st20{fill:url(#SVGID_20_);}
	.st21{fill:url(#SVGID_21_);}
	.st22{fill:url(#SVGID_22_);}
	.st23{fill:url(#SVGID_23_);}
	.st24{fill:url(#SVGID_24_);}
	.st25{fill:url(#SVGID_25_);}
	.st26{fill:url(#SVGID_26_);}
	.st27{fill:url(#SVGID_27_);}
	.st28{fill:url(#SVGID_28_);}
	.st29{fill:url(#SVGID_29_);}
	.st30{fill:url(#SVGID_30_);}
	.st31{fill:url(#SVGID_31_);}
	.st32{fill:url(#SVGID_32_);}
	.st33{fill:url(#SVGID_33_);}
	.st34{fill:url(#SVGID_34_);}
	.st35{fill:url(#SVGID_35_);}
	.st36{fill:url(#SVGID_36_);}
	.st37{fill:url(#SVGID_37_);}
	.st38{fill:url(#SVGID_38_);}
	.st39{fill:url(#SVGID_39_);}
	.st40{fill:url(#SVGID_40_);}
	.st41{fill:url(#SVGID_41_);}
	.st42{fill:url(#SVGID_42_);}
	.st43{fill:url(#SVGID_43_);}
	.st44{fill:url(#SVGID_44_);}
	.st45{fill:url(#SVGID_45_);}
	.st46{fill:url(#SVGID_46_);}
	.st47{fill:url(#SVGID_47_);}
	.st48{fill:url(#SVGID_48_);}
	.st49{fill:url(#SVGID_49_);}
	.st50{fill:url(#SVGID_50_);}
	.st51{fill:url(#SVGID_51_);}
	.st52{fill:url(#SVGID_52_);}
	.st53{fill:url(#SVGID_53_);}
	.st54{fill:url(#SVGID_54_);}
	.st55{fill:url(#SVGID_55_);}
	.st56{fill:url(#SVGID_56_);}
	.st57{fill:url(#SVGID_57_);}
	.st58{fill:url(#SVGID_58_);}
	.st59{fill:url(#SVGID_59_);}
	.st60{fill:url(#SVGID_60_);}
	.st61{fill:url(#SVGID_61_);}
	.st62{fill:url(#SVGID_62_);}
	.st63{fill:url(#SVGID_63_);}
	.st64{fill:#FFFFFF;}
</style>
<title>LION_LOGO</title>
<rect y="0" class="st0" width="253" height="93"/>
<g>
	<linearGradient id="SVGID_1_" gradientUnits="userSpaceOnUse" x1="-0.1082" y1="12.8049" x2="77.3918" y2="118.8049">
		<stop  offset="0" style="stop-color:#D7DADC"/>
		<stop  offset="6.383853e-03" style="stop-color:#D8DBDD"/>
		<stop  offset="0.2679" style="stop-color:#F4F5F6"/>
		<stop  offset="0.4185" style="stop-color:#FFFFFF"/>
		<stop  offset="1" style="stop-color:#959798"/>
	</linearGradient>
	<path class="st1" d="M21.7,41.8c0.2-0.2,0.3-0.5,0.4-0.7c0.1-0.2,0.1-0.3,0.1-0.3c-0.5-0.1-0.9-0.1-1.4,0.1
		c-0.5,0.2-0.9,0.8-1.2,1.7C20.7,42.7,21.3,42.3,21.7,41.8z"/>
	<linearGradient id="SVGID_2_" gradientUnits="userSpaceOnUse" x1="1.6939" y1="11.4873" x2="79.1939" y2="117.4873">
		<stop  offset="0" style="stop-color:#D7DADC"/>
		<stop  offset="6.383853e-03" style="stop-color:#D8DBDD"/>
		<stop  offset="0.2679" style="stop-color:#F4F5F6"/>
		<stop  offset="0.4185" style="stop-color:#FFFFFF"/>
		<stop  offset="1" style="stop-color:#959798"/>
	</linearGradient>
	<path class="st2" d="M21.7,38.1c-0.2,0.1-0.5,0.3-0.7,0.5c-0.2,0.3-0.4,0.6-0.6,1.1c0.9,0.3,1.6-0.1,2-0.6c0.5-0.4,0.7-0.9,0.7-0.9
		C22.7,38,22.2,37.9,21.7,38.1z"/>
	<linearGradient id="SVGID_3_" gradientUnits="userSpaceOnUse" x1="-3.2055" y1="15.0694" x2="74.2945" y2="121.0694">
		<stop  offset="0" style="stop-color:#D7DADC"/>
		<stop  offset="6.383853e-03" style="stop-color:#D8DBDD"/>
		<stop  offset="0.2679" style="stop-color:#F4F5F6"/>
		<stop  offset="0.4185" style="stop-color:#FFFFFF"/>
		<stop  offset="1" style="stop-color:#959798"/>
	</linearGradient>
	<path class="st3" d="M20.5,48.2c0.1-0.1,0.3-0.2,0.4-0.4c0.1-0.1,0.2-0.3,0.3-0.4c0.1-0.3,0.2-0.6,0.3-0.8c0-0.1,0-0.2,0.1-0.2
		c0-0.1,0-0.1,0-0.1c-0.5,0-1,0.1-1.3,0.4c-0.2,0.2-0.4,0.4-0.5,0.7c-0.1,0.2-0.1,0.3-0.2,0.5c0,0.2-0.1,0.4-0.1,0.7
		C19.9,48.5,20.2,48.4,20.5,48.2z"/>
	<linearGradient id="SVGID_4_" gradientUnits="userSpaceOnUse" x1="-1.7614" y1="14.0136" x2="75.7386" y2="120.0136">
		<stop  offset="0" style="stop-color:#D7DADC"/>
		<stop  offset="6.383853e-03" style="stop-color:#D8DBDD"/>
		<stop  offset="0.2679" style="stop-color:#F4F5F6"/>
		<stop  offset="0.4185" style="stop-color:#FFFFFF"/>
		<stop  offset="1" style="stop-color:#959798"/>
	</linearGradient>
	<path class="st4" d="M20.6,45.3c0.3-0.2,0.5-0.5,0.7-0.7c0.2-0.3,0.3-0.5,0.4-0.7c0.1-0.2,0.1-0.3,0.1-0.3
		c-0.9-0.1-1.9,0.1-2.3,2.1C19.9,45.6,20.3,45.5,20.6,45.3z"/>
	<linearGradient id="SVGID_5_" gradientUnits="userSpaceOnUse" x1="-5.4654" y1="16.7217" x2="72.0346" y2="122.7217">
		<stop  offset="0" style="stop-color:#D7DADC"/>
		<stop  offset="6.383853e-03" style="stop-color:#D8DBDD"/>
		<stop  offset="0.2679" style="stop-color:#F4F5F6"/>
		<stop  offset="0.4185" style="stop-color:#FFFFFF"/>
		<stop  offset="1" style="stop-color:#959798"/>
	</linearGradient>
	<path class="st5" d="M21.8,52.9c0.2-0.6,0.1-1.2,0.1-1.2c-0.5,0.1-0.9,0.3-1.2,0.7c-0.1,0.2-0.3,0.5-0.3,0.8
		c-0.1,0.3-0.1,0.7,0,1.2C21.3,54.2,21.7,53.5,21.8,52.9z"/>
	<linearGradient id="SVGID_6_" gradientUnits="userSpaceOnUse" x1="-4.4579" y1="15.9851" x2="73.0421" y2="121.9851">
		<stop  offset="0" style="stop-color:#D7DADC"/>
		<stop  offset="6.383853e-03" style="stop-color:#D8DBDD"/>
		<stop  offset="0.2679" style="stop-color:#F4F5F6"/>
		<stop  offset="0.4185" style="stop-color:#FFFFFF"/>
		<stop  offset="1" style="stop-color:#959798"/>
	</linearGradient>
	<path class="st6" d="M20.8,51c0.1-0.1,0.2-0.3,0.3-0.4c0.1-0.1,0.1-0.3,0.2-0.4c0.2-0.6,0.2-1.1,0.2-1.1c-0.5,0-0.9,0.2-1.3,0.5
		c-0.2,0.2-0.3,0.4-0.4,0.8c-0.1,0.2-0.1,0.3-0.1,0.6c0,0.2,0,0.4,0,0.7C20.2,51.5,20.5,51.3,20.8,51z"/>
	<linearGradient id="SVGID_7_" gradientUnits="userSpaceOnUse" x1="-6.7702" y1="17.6756" x2="70.7298" y2="123.6756">
		<stop  offset="0" style="stop-color:#D7DADC"/>
		<stop  offset="6.383853e-03" style="stop-color:#D8DBDD"/>
		<stop  offset="0.2679" style="stop-color:#F4F5F6"/>
		<stop  offset="0.4185" style="stop-color:#FFFFFF"/>
		<stop  offset="1" style="stop-color:#959798"/>
	</linearGradient>
	<path class="st7" d="M23.7,58.2c0-0.3,0-0.6-0.1-0.8c0-0.2-0.1-0.3-0.1-0.3c-0.4,0.2-0.8,0.5-1,0.9c-0.1,0.2-0.2,0.5-0.1,0.9
		c0,0.3,0.1,0.7,0.3,1.2C23.5,59.6,23.7,58.8,23.7,58.2z"/>
	<linearGradient id="SVGID_8_" gradientUnits="userSpaceOnUse" x1="-6.245" y1="17.2917" x2="71.255" y2="123.2917">
		<stop  offset="0" style="stop-color:#D7DADC"/>
		<stop  offset="6.383853e-03" style="stop-color:#D8DBDD"/>
		<stop  offset="0.2679" style="stop-color:#F4F5F6"/>
		<stop  offset="0.4185" style="stop-color:#FFFFFF"/>
		<stop  offset="1" style="stop-color:#959798"/>
	</linearGradient>
	<path class="st8" d="M22.6,55.6c0-0.3,0-0.6,0-0.8c0-0.2,0-0.3,0-0.3c-0.5,0.1-0.9,0.4-1.1,0.8c-0.1,0.2-0.2,0.5-0.2,0.8
		c0,0.3,0,0.7,0.2,1.2C22.3,57,22.5,56.2,22.6,55.6z"/>
	<linearGradient id="SVGID_9_" gradientUnits="userSpaceOnUse" x1="3.6446" y1="10.0611" x2="81.1446" y2="116.0611">
		<stop  offset="0" style="stop-color:#D7DADC"/>
		<stop  offset="6.383853e-03" style="stop-color:#D8DBDD"/>
		<stop  offset="0.2679" style="stop-color:#F4F5F6"/>
		<stop  offset="0.4185" style="stop-color:#FFFFFF"/>
		<stop  offset="1" style="stop-color:#959798"/>
	</linearGradient>
	<path class="st9" d="M24,35.9c0.1-0.2,0.2-0.3,0.2-0.3c-0.8-0.4-1.9-0.5-2.9,1.2c0.4,0.2,0.8,0.2,1.2,0.1c0.2,0,0.3-0.1,0.5-0.2
		c0.2-0.1,0.3-0.2,0.4-0.3C23.7,36.3,23.9,36.1,24,35.9z"/>
	<linearGradient id="SVGID_10_" gradientUnits="userSpaceOnUse" x1="5.7691" y1="8.5078" x2="83.2691" y2="114.5078">
		<stop  offset="0" style="stop-color:#D7DADC"/>
		<stop  offset="6.383853e-03" style="stop-color:#D8DBDD"/>
		<stop  offset="0.2679" style="stop-color:#F4F5F6"/>
		<stop  offset="0.4185" style="stop-color:#FFFFFF"/>
		<stop  offset="1" style="stop-color:#959798"/>
	</linearGradient>
	<path class="st10" d="M25.4,33.5c0.1-0.1,0.2-0.2,0.2-0.2c-0.4-0.3-0.8-0.4-1.3-0.4c-0.5,0.1-1,0.4-1.6,1.2
		c0.4,0.2,0.8,0.3,1.1,0.2c0.3,0,0.7-0.2,0.9-0.3C25,33.8,25.2,33.6,25.4,33.5z"/>
	<linearGradient id="SVGID_11_" gradientUnits="userSpaceOnUse" x1="7.8663" y1="6.9744" x2="85.3663" y2="112.9744">
		<stop  offset="0" style="stop-color:#D7DADC"/>
		<stop  offset="6.383853e-03" style="stop-color:#D8DBDD"/>
		<stop  offset="0.2679" style="stop-color:#F4F5F6"/>
		<stop  offset="0.4185" style="stop-color:#FFFFFF"/>
		<stop  offset="1" style="stop-color:#959798"/>
	</linearGradient>
	<path class="st11" d="M27,31.1c-0.3-0.3-0.7-0.5-1.2-0.5c-0.2,0-0.5,0.1-0.8,0.2c-0.3,0.2-0.6,0.4-0.9,0.7c0.7,0.5,1.4,0.4,1.9,0.1
		C26.7,31.4,27,31.1,27,31.1z"/>
	<linearGradient id="SVGID_12_" gradientUnits="userSpaceOnUse" x1="9.939" y1="5.4591" x2="87.439" y2="111.4591">
		<stop  offset="0" style="stop-color:#D7DADC"/>
		<stop  offset="6.383853e-03" style="stop-color:#D8DBDD"/>
		<stop  offset="0.2679" style="stop-color:#F4F5F6"/>
		<stop  offset="0.4185" style="stop-color:#FFFFFF"/>
		<stop  offset="1" style="stop-color:#959798"/>
	</linearGradient>
	<path class="st12" d="M27.4,29.7c0.1,0,0.3-0.1,0.4-0.1c0.3-0.1,0.5-0.2,0.6-0.3c0.2-0.1,0.2-0.2,0.2-0.2c-0.3-0.3-0.6-0.5-1-0.6
		c-0.2,0-0.5,0-0.7,0.1c-0.3,0.1-0.6,0.3-0.9,0.6c0.3,0.3,0.6,0.4,0.9,0.4C27.1,29.7,27.2,29.7,27.4,29.7z"/>
	<linearGradient id="SVGID_13_" gradientUnits="userSpaceOnUse" x1="3.0666" y1="10.4836" x2="80.5666" y2="116.4836">
		<stop  offset="0" style="stop-color:#D7DADC"/>
		<stop  offset="6.383853e-03" style="stop-color:#D8DBDD"/>
		<stop  offset="0.2679" style="stop-color:#F4F5F6"/>
		<stop  offset="0.4185" style="stop-color:#FFFFFF"/>
		<stop  offset="1" style="stop-color:#959798"/>
	</linearGradient>
	<path class="st13" d="M22.4,60.2c0.3,0.5,0.6,1,0.9,1.5l0.2-0.1c-1.8-2.9-3.1-6.1-3.7-9.4c-0.6-3.3-0.6-6.8,0-10.1
		c0.6-3.3,1.8-6.5,3.6-9.4c1.6-2.5,3.6-4.8,6-6.6c0.4,0,0.7-0.1,1-0.2c0.3-0.1,0.6-0.2,0.8-0.4c0.1-0.1,0.2-0.2,0.3-0.3
		c0.1-0.1,0.2-0.2,0.3-0.3c0.2-0.2,0.3-0.4,0.5-0.7c0,0-0.6-0.1-1.3,0.1c-0.3,0.1-0.7,0.3-1,0.6c-0.3,0.2-0.5,0.6-0.6,1
		c-0.4,0.3-0.7,0.6-1.1,0.9c0.1-0.1,0.1-0.2,0.2-0.3c0.1-0.2,0.2-0.4,0.2-0.6c0-0.4-0.1-0.7-0.3-1c0,0,0,0-0.1,0.1
		c0,0-0.1,0.1-0.1,0.2c-0.1,0.1-0.3,0.3-0.4,0.6c-0.2,0.4-0.3,1,0.1,1.5c-0.5,0.5-1.1,1-1.5,1.5c0.1-0.2,0.2-0.3,0.2-0.5
		c0.1-0.3,0.2-0.5,0.2-0.7c0-0.5-0.2-0.8-0.5-1.1c0,0-0.1,0.1-0.2,0.3c-0.1,0.2-0.3,0.4-0.4,0.7c-0.1,0.1-0.1,0.3-0.1,0.4
		c0,0.2,0,0.3,0,0.5c0,0.3,0.2,0.6,0.4,0.8c-0.5,0.6-1,1.2-1.5,1.8c0.1-0.2,0.1-0.4,0.2-0.6c0.1-0.3,0.1-0.6,0.1-0.8
		c-0.1-0.5-0.3-0.8-0.7-1.1c0,0-0.3,0.5-0.5,1.1c-0.1,0.6-0.1,1.3,0.6,1.8c-0.3,0.4-0.6,0.8-0.8,1.3c-0.2,0.3-0.3,0.5-0.5,0.8
		c0.2-0.6,0.2-1.1,0.1-1.5c-0.1-0.5-0.4-0.8-0.8-1.1c0,0-0.1,0.1-0.2,0.4c-0.1,0.2-0.2,0.5-0.2,0.9c0,0.3,0,0.7,0.1,1
		c0.1,0.3,0.3,0.6,0.7,0.8c-0.4,0.8-0.8,1.6-1.1,2.4c0.3-1.6-0.2-2.2-1-2.6c0,0-0.1,0.1-0.1,0.4c-0.1,0.2-0.1,0.6-0.1,0.9
		c0,0.2,0,0.4,0,0.5c0,0.2,0.1,0.4,0.2,0.5c0.2,0.3,0.4,0.6,0.8,0.8c-0.3,0.8-0.6,1.6-0.8,2.4c0-0.3,0-0.5,0-0.8
		c0-0.3-0.1-0.6-0.2-0.9c-0.2-0.5-0.6-0.7-1.1-0.9c0,0-0.2,0.6-0.1,1.3c0.1,0.7,0.4,1.4,1.3,1.7c-0.2,0.8-0.4,1.6-0.6,2.5
		c0-0.7-0.2-1.2-0.4-1.6c-0.3-0.4-0.7-0.7-1.2-0.8c0,0,0,0.2,0,0.4c0,0.2,0,0.6,0.1,0.9c0.2,0.7,0.5,1.4,1.4,1.5
		c-0.1,0.8-0.2,1.7-0.3,2.5c-0.2-1.6-0.9-2.1-1.8-2.2c0,0,0,0.2,0,0.4c0,0.2,0.1,0.6,0.2,0.9c0.1,0.3,0.3,0.7,0.6,0.9
		c0.3,0.2,0.6,0.4,1,0.4c0,0.9-0.1,1.7,0,2.6c0-0.1,0-0.1-0.1-0.2c-0.1-0.2-0.1-0.4-0.2-0.5c-0.1-0.3-0.3-0.6-0.5-0.7
		c-0.4-0.4-0.8-0.5-1.3-0.5c0,0,0,0,0,0.1c0,0.1,0,0.2,0,0.3c0,0.2,0.1,0.6,0.3,0.9c0.1,0.2,0.2,0.3,0.3,0.5
		c0.1,0.1,0.2,0.3,0.4,0.4c0.3,0.2,0.6,0.3,1.1,0.3c0,0.9,0.1,1.7,0.3,2.5c0-0.1,0-0.1-0.1-0.2c-0.1-0.2-0.2-0.4-0.2-0.5
		c-0.2-0.3-0.4-0.5-0.6-0.7c-0.4-0.3-0.9-0.4-1.4-0.4c0,0,0.1,0.6,0.5,1.2c0.1,0.2,0.2,0.3,0.3,0.4c0.1,0.1,0.3,0.3,0.4,0.3
		c0.3,0.2,0.7,0.3,1.1,0.2c0,0.2,0.1,0.4,0.1,0.6c0.1,0.6,0.3,1.2,0.4,1.8c-0.1-0.2-0.3-0.4-0.4-0.6c-0.2-0.3-0.4-0.5-0.6-0.6
		c-0.4-0.3-0.9-0.3-1.4-0.2c0,0,0.2,0.6,0.6,1.2c0.4,0.5,1.1,1,1.9,0.8c0.2,0.8,0.5,1.6,0.8,2.4c-0.2-0.2-0.3-0.4-0.5-0.6
		c-0.2-0.3-0.5-0.4-0.7-0.5c-0.5-0.2-0.9-0.2-1.4-0.1c0,0,0.1,0.2,0.2,0.4c0.1,0.2,0.3,0.5,0.5,0.7c0.5,0.5,1.2,0.9,2,0.5
		c0.3,0.8,0.7,1.5,1.1,2.3c-0.2-0.2-0.4-0.4-0.5-0.6c-0.3-0.2-0.5-0.4-0.8-0.5c-0.5-0.2-1-0.1-1.4,0.1c0,0,0.1,0.1,0.2,0.3
		c0.1,0.2,0.3,0.5,0.6,0.7C20.8,60.3,21.6,60.6,22.4,60.2z"/>
	<linearGradient id="SVGID_14_" gradientUnits="userSpaceOnUse" x1="11.8844" y1="4.0367" x2="89.3844" y2="110.0367">
		<stop  offset="0" style="stop-color:#D7DADC"/>
		<stop  offset="6.383853e-03" style="stop-color:#D8DBDD"/>
		<stop  offset="0.2679" style="stop-color:#F4F5F6"/>
		<stop  offset="0.4185" style="stop-color:#FFFFFF"/>
		<stop  offset="1" style="stop-color:#959798"/>
	</linearGradient>
	<path class="st14" d="M29.4,27.8c0.2,0,0.4-0.1,0.6-0.2c0.1,0,0.1-0.1,0.2-0.1c0,0,0.1,0,0.1,0c-0.2-0.3-0.5-0.5-0.8-0.6
		c-0.2,0-0.4,0-0.6,0c-0.1,0-0.2,0.1-0.4,0.1c-0.1,0.1-0.3,0.2-0.4,0.3C28.4,27.9,28.9,27.9,29.4,27.8z"/>
	<linearGradient id="SVGID_15_" gradientUnits="userSpaceOnUse" x1="35.3695" y1="-13.134" x2="112.8695" y2="92.866">
		<stop  offset="0" style="stop-color:#D7DADC"/>
		<stop  offset="6.383853e-03" style="stop-color:#D8DBDD"/>
		<stop  offset="0.2679" style="stop-color:#F4F5F6"/>
		<stop  offset="0.4185" style="stop-color:#FFFFFF"/>
		<stop  offset="1" style="stop-color:#959798"/>
	</linearGradient>
	<path class="st15" d="M74.6,40.5c-0.3,0.4-0.4,1.1-0.4,2.1c1-0.2,1.3-0.9,1.5-1.5c0.1-0.3,0.1-0.7,0.1-0.9c0-0.2,0-0.4,0-0.4
		C75.3,39.8,74.9,40,74.6,40.5z"/>
	<linearGradient id="SVGID_16_" gradientUnits="userSpaceOnUse" x1="36.2706" y1="-13.7929" x2="113.7706" y2="92.2071">
		<stop  offset="0" style="stop-color:#D7DADC"/>
		<stop  offset="6.383853e-03" style="stop-color:#D8DBDD"/>
		<stop  offset="0.2679" style="stop-color:#F4F5F6"/>
		<stop  offset="0.4185" style="stop-color:#FFFFFF"/>
		<stop  offset="1" style="stop-color:#959798"/>
	</linearGradient>
	<path class="st16" d="M73.5,38.4c0,0.3,0,0.8,0.1,1.3c0.9-0.3,1.2-1,1.3-1.7c0.1-0.7-0.1-1.3-0.1-1.3c-0.4,0.2-0.8,0.4-1.1,0.9
		C73.6,37.7,73.5,38,73.5,38.4z"/>
	<linearGradient id="SVGID_17_" gradientUnits="userSpaceOnUse" x1="32.8113" y1="-11.2637" x2="110.3113" y2="94.7363">
		<stop  offset="0" style="stop-color:#D7DADC"/>
		<stop  offset="6.383853e-03" style="stop-color:#D8DBDD"/>
		<stop  offset="0.2679" style="stop-color:#F4F5F6"/>
		<stop  offset="0.4185" style="stop-color:#FFFFFF"/>
		<stop  offset="1" style="stop-color:#959798"/>
	</linearGradient>
	<path class="st17" d="M75.4,46.6c-0.2,0.2-0.4,0.4-0.5,0.7c-0.1,0.2-0.1,0.3-0.2,0.5c-0.1,0.2-0.1,0.4-0.2,0.7
		c0.5,0,0.9-0.1,1.2-0.3c0.1-0.1,0.3-0.2,0.4-0.4c0.1-0.1,0.2-0.3,0.3-0.5c0.1-0.3,0.2-0.6,0.3-0.9c0-0.1,0-0.2,0-0.3
		c0-0.1,0-0.1,0-0.1C76.3,46.1,75.8,46.3,75.4,46.6z"/>
	<linearGradient id="SVGID_18_" gradientUnits="userSpaceOnUse" x1="34.2015" y1="-12.28" x2="111.7015" y2="93.72">
		<stop  offset="0" style="stop-color:#D7DADC"/>
		<stop  offset="6.383853e-03" style="stop-color:#D8DBDD"/>
		<stop  offset="0.2679" style="stop-color:#F4F5F6"/>
		<stop  offset="0.4185" style="stop-color:#FFFFFF"/>
		<stop  offset="1" style="stop-color:#959798"/>
	</linearGradient>
	<path class="st18" d="M74.6,45.6c0.5,0,0.8-0.2,1.1-0.5c0.3-0.3,0.4-0.6,0.6-0.9c0.1-0.3,0.2-0.7,0.2-0.9c0-0.2,0-0.4,0-0.4
		C75.5,43,74.7,43.6,74.6,45.6z"/>
	<linearGradient id="SVGID_19_" gradientUnits="userSpaceOnUse" x1="29.3547" y1="-8.7364" x2="106.8547" y2="97.2636">
		<stop  offset="0" style="stop-color:#D7DADC"/>
		<stop  offset="6.383853e-03" style="stop-color:#D8DBDD"/>
		<stop  offset="0.2679" style="stop-color:#F4F5F6"/>
		<stop  offset="0.4185" style="stop-color:#FFFFFF"/>
		<stop  offset="1" style="stop-color:#959798"/>
	</linearGradient>
	<path class="st19" d="M74.8,52.8c-0.2,0.1-0.4,0.3-0.6,0.6c-0.2,0.3-0.4,0.6-0.6,1.1c0.9,0.3,1.6-0.2,2-0.8
		c0.4-0.6,0.6-1.2,0.6-1.2C75.8,52.5,75.3,52.5,74.8,52.8z"/>
	<linearGradient id="SVGID_20_" gradientUnits="userSpaceOnUse" x1="31.1773" y1="-10.069" x2="108.6773" y2="95.9311">
		<stop  offset="0" style="stop-color:#D7DADC"/>
		<stop  offset="6.383853e-03" style="stop-color:#D8DBDD"/>
		<stop  offset="0.2679" style="stop-color:#F4F5F6"/>
		<stop  offset="0.4185" style="stop-color:#FFFFFF"/>
		<stop  offset="1" style="stop-color:#959798"/>
	</linearGradient>
	<path class="st20" d="M75.3,49.8c-0.2,0.2-0.4,0.4-0.6,0.7c-0.1,0.2-0.2,0.3-0.2,0.5c-0.1,0.2-0.2,0.4-0.2,0.7
		c0.5,0.1,0.9,0,1.2-0.2c0.2-0.1,0.3-0.2,0.4-0.3c0.1-0.1,0.2-0.3,0.3-0.4c0.4-0.6,0.5-1.2,0.5-1.2C76.2,49.4,75.7,49.4,75.3,49.8z"
		/>
	<linearGradient id="SVGID_21_" gradientUnits="userSpaceOnUse" x1="25.1635" y1="-5.6721" x2="102.6635" y2="100.3279">
		<stop  offset="0" style="stop-color:#D7DADC"/>
		<stop  offset="6.383853e-03" style="stop-color:#D8DBDD"/>
		<stop  offset="0.2679" style="stop-color:#F4F5F6"/>
		<stop  offset="0.4185" style="stop-color:#FFFFFF"/>
		<stop  offset="1" style="stop-color:#959798"/>
	</linearGradient>
	<path class="st21" d="M72.9,58.7c-0.2,0.1-0.5,0.2-0.8,0.5c-0.3,0.2-0.5,0.5-0.8,1c0.8,0.5,1.6,0.2,2.1-0.3
		c0.3-0.2,0.5-0.5,0.6-0.7c0.1-0.2,0.2-0.3,0.2-0.3C73.9,58.6,73.4,58.6,72.9,58.7z"/>
	<linearGradient id="SVGID_22_" gradientUnits="userSpaceOnUse" x1="27.3239" y1="-7.2516" x2="104.8239" y2="98.7484">
		<stop  offset="0" style="stop-color:#D7DADC"/>
		<stop  offset="6.383853e-03" style="stop-color:#D8DBDD"/>
		<stop  offset="0.2679" style="stop-color:#F4F5F6"/>
		<stop  offset="0.4185" style="stop-color:#FFFFFF"/>
		<stop  offset="1" style="stop-color:#959798"/>
	</linearGradient>
	<path class="st22" d="M74,55.8c-0.2,0.1-0.5,0.3-0.7,0.5c-0.2,0.3-0.5,0.6-0.7,1c0.9,0.4,1.6,0,2.1-0.5c0.2-0.3,0.4-0.5,0.5-0.7
		c0.1-0.2,0.2-0.4,0.2-0.4C75,55.7,74.5,55.6,74,55.8z"/>
	<linearGradient id="SVGID_23_" gradientUnits="userSpaceOnUse" x1="36.905" y1="-14.2567" x2="114.405" y2="91.7433">
		<stop  offset="0" style="stop-color:#D7DADC"/>
		<stop  offset="6.383853e-03" style="stop-color:#D8DBDD"/>
		<stop  offset="0.2679" style="stop-color:#F4F5F6"/>
		<stop  offset="0.4185" style="stop-color:#FFFFFF"/>
		<stop  offset="1" style="stop-color:#959798"/>
	</linearGradient>
	<path class="st23" d="M73.5,36c0.1-0.2,0.1-0.3,0.2-0.5c0-0.2,0-0.4,0-0.5c0-0.4-0.1-0.7-0.1-0.9c-0.1-0.2-0.1-0.4-0.1-0.4
		c-0.9,0.4-1.4,1.2-0.9,3.1C73.1,36.6,73.3,36.3,73.5,36z"/>
	<linearGradient id="SVGID_24_" gradientUnits="userSpaceOnUse" x1="37.2498" y1="-14.5087" x2="114.7498" y2="91.4913">
		<stop  offset="0" style="stop-color:#D7DADC"/>
		<stop  offset="6.383853e-03" style="stop-color:#D8DBDD"/>
		<stop  offset="0.2679" style="stop-color:#F4F5F6"/>
		<stop  offset="0.4185" style="stop-color:#FFFFFF"/>
		<stop  offset="1" style="stop-color:#959798"/>
	</linearGradient>
	<path class="st24" d="M72.1,33.1c0.1-0.3,0.1-0.7,0.1-1c0-0.3-0.1-0.6-0.2-0.9c-0.1-0.2-0.2-0.4-0.2-0.4c-0.4,0.3-0.7,0.6-0.8,1.1
		c-0.1,0.5,0,1.1,0.3,2C71.7,33.7,71.9,33.4,72.1,33.1z"/>
	<linearGradient id="SVGID_25_" gradientUnits="userSpaceOnUse" x1="37.2701" y1="-14.5236" x2="114.7701" y2="91.4764">
		<stop  offset="0" style="stop-color:#D7DADC"/>
		<stop  offset="6.383853e-03" style="stop-color:#D8DBDD"/>
		<stop  offset="0.2679" style="stop-color:#F4F5F6"/>
		<stop  offset="0.4185" style="stop-color:#FFFFFF"/>
		<stop  offset="1" style="stop-color:#959798"/>
	</linearGradient>
	<path class="st25" d="M69.7,31.4c0.7-0.5,0.8-1.2,0.6-1.9c-0.2-0.6-0.5-1.1-0.5-1.1c-0.3,0.3-0.6,0.6-0.7,1.1c0,0.2,0,0.5,0.1,0.8
		C69.3,30.6,69.5,31,69.7,31.4z"/>
	<linearGradient id="SVGID_26_" gradientUnits="userSpaceOnUse" x1="37.0233" y1="-14.3432" x2="114.5233" y2="91.6568">
		<stop  offset="0" style="stop-color:#D7DADC"/>
		<stop  offset="6.383853e-03" style="stop-color:#D8DBDD"/>
		<stop  offset="0.2679" style="stop-color:#F4F5F6"/>
		<stop  offset="0.4185" style="stop-color:#FFFFFF"/>
		<stop  offset="1" style="stop-color:#959798"/>
	</linearGradient>
	<path class="st26" d="M67.9,29.2c0.3-0.3,0.5-0.6,0.5-0.9c0-0.2,0-0.3,0-0.5c0-0.2-0.1-0.3-0.1-0.4c-0.1-0.3-0.2-0.5-0.4-0.7
		c-0.1-0.2-0.2-0.3-0.2-0.3c-0.3,0.3-0.5,0.6-0.5,1.1c0,0.2,0,0.5,0.2,0.7C67.5,28.5,67.7,28.8,67.9,29.2z"/>
	<linearGradient id="SVGID_27_" gradientUnits="userSpaceOnUse" x1="36.503" y1="-13.9627" x2="114.003" y2="92.0373">
		<stop  offset="0" style="stop-color:#D7DADC"/>
		<stop  offset="6.383853e-03" style="stop-color:#D8DBDD"/>
		<stop  offset="0.2679" style="stop-color:#F4F5F6"/>
		<stop  offset="0.4185" style="stop-color:#FFFFFF"/>
		<stop  offset="1" style="stop-color:#959798"/>
	</linearGradient>
	<path class="st27" d="M65.7,26.9c0.1,0.1,0.2,0.3,0.3,0.4c0.5-0.5,0.4-1.1,0.2-1.6c-0.1-0.2-0.3-0.4-0.4-0.6
		c-0.1-0.1-0.1-0.1-0.1-0.2c0,0-0.1-0.1-0.1-0.1c-0.2,0.3-0.3,0.6-0.3,1c0,0.2,0.1,0.4,0.2,0.6C65.5,26.6,65.6,26.8,65.7,26.9z"/>
	<linearGradient id="SVGID_28_" gradientUnits="userSpaceOnUse" x1="29.4524" y1="-8.8078" x2="106.9524" y2="97.1922">
		<stop  offset="0" style="stop-color:#D7DADC"/>
		<stop  offset="6.383853e-03" style="stop-color:#D8DBDD"/>
		<stop  offset="0.2679" style="stop-color:#F4F5F6"/>
		<stop  offset="0.4185" style="stop-color:#FFFFFF"/>
		<stop  offset="1" style="stop-color:#959798"/>
	</linearGradient>
	<path class="st28" d="M62.3,25.4c0.2,0.3,0.5,0.5,0.9,0.6c0.3,0.1,0.7,0.2,1.1,0.2c0.4,0.3,0.7,0.6,1.1,0.9c-0.1,0-0.2-0.1-0.3-0.1
		c-0.2-0.1-0.4-0.1-0.6,0c-0.4,0.1-0.6,0.3-0.8,0.6c0,0,0,0,0.1,0c0,0,0.1,0.1,0.2,0.1c0.1,0.1,0.3,0.1,0.6,0.2
		c0.4,0.1,1,0.1,1.4-0.4c0.5,0.5,1,1,1.5,1.5c-0.2-0.1-0.3-0.2-0.5-0.2c-0.3-0.1-0.5-0.1-0.7-0.1c-0.4,0-0.8,0.3-1,0.6
		c0,0,0.1,0.1,0.2,0.2c0.2,0.1,0.4,0.2,0.6,0.3c0.1,0,0.3,0.1,0.4,0.1c0.1,0,0.3,0,0.4,0c0.3,0,0.6-0.1,0.9-0.4
		c0.5,0.6,1,1.2,1.5,1.8c-0.2-0.2-0.3-0.3-0.5-0.4c-0.3-0.1-0.5-0.2-0.8-0.2c-0.5,0-0.8,0.2-1.2,0.5c0,0,0.3,0.4,0.9,0.6
		c0.5,0.2,1.2,0.4,1.8-0.1c0.3,0.4,0.6,0.8,0.8,1.2c0.2,0.3,0.3,0.6,0.5,0.8c-0.5-0.5-0.9-0.8-1.3-0.8c-0.5-0.1-0.9,0.1-1.3,0.4
		c0,0,0.1,0.1,0.2,0.2c0.1,0.1,0.4,0.3,0.6,0.5c0.3,0.2,0.6,0.3,0.9,0.3c0.3,0,0.7,0,1.1-0.2c0.4,0.8,0.8,1.6,1.2,2.4
		c-0.9-1.3-1.9-1.2-2.6-0.8c0,0,0.1,0.1,0.2,0.3c0.1,0.2,0.3,0.4,0.6,0.6c0.1,0.1,0.3,0.2,0.4,0.3c0.1,0.1,0.3,0.1,0.5,0.2
		c0.3,0.1,0.7,0.1,1.1-0.1c0.3,0.8,0.6,1.6,0.8,2.4c-0.1-0.3-0.3-0.5-0.4-0.6c-0.2-0.3-0.5-0.4-0.7-0.5c-0.5-0.2-0.9-0.1-1.4,0.1
		c0,0,0.2,0.5,0.7,0.9c0.4,0.4,1.1,0.8,1.9,0.6c0.2,0.8,0.4,1.6,0.6,2.4c-0.3-0.7-0.6-1-1-1.2c-0.4-0.2-0.9-0.2-1.4-0.1
		c0,0,0,0.1,0.1,0.3c0.1,0.2,0.3,0.4,0.4,0.7c0.4,0.5,1,0.9,1.9,0.8c0.1,0.8,0.2,1.7,0.3,2.5c-0.4-1.5-1.4-1.7-2.2-1.6
		c0,0,0,0.1,0.1,0.3c0.1,0.2,0.2,0.5,0.4,0.7c0.2,0.3,0.4,0.5,0.7,0.7c0.3,0.2,0.6,0.3,1.1,0.3c0,0.8,0.1,1.6,0,2.5
		c0-0.1,0-0.1,0-0.2c0-0.2-0.1-0.4-0.2-0.5c-0.1-0.3-0.3-0.5-0.5-0.7c-0.4-0.3-0.9-0.4-1.3-0.4c0,0,0,0,0,0.1c0,0.1,0,0.1,0.1,0.2
		c0,0.2,0.1,0.5,0.3,0.8c0.1,0.1,0.2,0.3,0.3,0.4c0.1,0.1,0.2,0.3,0.4,0.4c0.3,0.2,0.6,0.4,1,0.4c0,0.8-0.1,1.7-0.3,2.5
		c0-0.1,0-0.1,0-0.2c0-0.2-0.1-0.4-0.1-0.6c-0.1-0.3-0.2-0.6-0.4-0.8c-0.3-0.4-0.8-0.5-1.3-0.5c0,0,0,0.5,0.2,1.1
		c0.1,0.1,0.1,0.3,0.2,0.4c0.1,0.1,0.2,0.3,0.3,0.4c0.2,0.2,0.6,0.4,1,0.5c0,0.2-0.1,0.4-0.1,0.6c-0.1,0.6-0.3,1.2-0.4,1.9
		c0-0.3,0-0.6,0-0.8c-0.1-0.3-0.2-0.6-0.3-0.8c-0.3-0.4-0.7-0.6-1.2-0.7c0,0-0.1,0.5,0.1,1.2c0.1,0.6,0.5,1.3,1.3,1.5
		c-0.2,0.8-0.5,1.6-0.8,2.4c0-0.3,0.1-0.5,0.1-0.8c0-0.3-0.1-0.6-0.2-0.8c-0.3-0.4-0.7-0.7-1.1-0.8c0,0,0,0.1,0,0.3
		c0,0.2,0,0.5,0,0.8c0.1,0.6,0.3,1.3,1.2,1.7c-0.3,0.8-0.7,1.5-1.1,2.3c0.1-0.3,0.1-0.5,0.1-0.7c0-0.3,0-0.6-0.1-0.9
		c-0.2-0.5-0.6-0.7-1-0.9c0,0,0,0.1-0.1,0.3c0,0.2-0.1,0.5-0.1,0.8c0,0.6,0.2,1.3,1,1.8c-0.3,0.5-0.6,1-0.9,1.5l0.2,0.1
		c1.8-2.9,3.1-6.1,3.7-9.4c0.6-3.3,0.6-6.8,0-10.1c-0.6-3.3-1.8-6.5-3.6-9.4c-1.6-2.5-3.6-4.8-6-6.6c-0.1-0.3-0.3-0.6-0.5-0.9
		c-0.2-0.3-0.5-0.4-0.7-0.6c-0.1-0.1-0.3-0.1-0.4-0.2c-0.1,0-0.3-0.1-0.4-0.1c-0.3,0-0.6-0.1-0.8-0.1C61.6,24.4,61.8,24.9,62.3,25.4
		z"/>
	<linearGradient id="SVGID_29_" gradientUnits="userSpaceOnUse" x1="12.0181" y1="3.939" x2="89.5181" y2="109.939">
		<stop  offset="0" style="stop-color:#D7DADC"/>
		<stop  offset="6.383853e-03" style="stop-color:#D8DBDD"/>
		<stop  offset="0.2679" style="stop-color:#F4F5F6"/>
		<stop  offset="0.4185" style="stop-color:#FFFFFF"/>
		<stop  offset="1" style="stop-color:#959798"/>
	</linearGradient>
	<path class="st29" d="M60.2,72.4l1.1,2l1.8-3.8C62.1,71.3,61.1,71.9,60.2,72.4z"/>
	<linearGradient id="SVGID_30_" gradientUnits="userSpaceOnUse" x1="-7.3718" y1="18.1155" x2="70.1282" y2="124.1155">
		<stop  offset="0" style="stop-color:#D7DADC"/>
		<stop  offset="6.383853e-03" style="stop-color:#D8DBDD"/>
		<stop  offset="0.2679" style="stop-color:#F4F5F6"/>
		<stop  offset="0.4185" style="stop-color:#FFFFFF"/>
		<stop  offset="1" style="stop-color:#959798"/>
	</linearGradient>
	<path class="st30" d="M32.5,74.4l1.1-2c-1-0.6-1.9-1.2-2.9-1.9L32.5,74.4z"/>
	<linearGradient id="SVGID_31_" gradientUnits="userSpaceOnUse" x1="7.8552" y1="6.9825" x2="85.3552" y2="112.9825">
		<stop  offset="0" style="stop-color:#D7DADC"/>
		<stop  offset="6.383853e-03" style="stop-color:#D8DBDD"/>
		<stop  offset="0.2679" style="stop-color:#F4F5F6"/>
		<stop  offset="0.4185" style="stop-color:#FFFFFF"/>
		<stop  offset="1" style="stop-color:#959798"/>
	</linearGradient>
	<polygon class="st31" points="55,71.1 54.2,69.7 54.2,69.7 54.4,71.3 	"/>
	<linearGradient id="SVGID_32_" gradientUnits="userSpaceOnUse" x1="5.5075" y1="8.699" x2="83.0075" y2="114.699">
		<stop  offset="0" style="stop-color:#D7DADC"/>
		<stop  offset="6.383853e-03" style="stop-color:#D8DBDD"/>
		<stop  offset="0.2679" style="stop-color:#F4F5F6"/>
		<stop  offset="0.4185" style="stop-color:#FFFFFF"/>
		<stop  offset="1" style="stop-color:#959798"/>
	</linearGradient>
	<path class="st32" d="M51.5,70.2c0-0.1-0.1-0.2-0.2-0.3c-0.1-0.1-0.2-0.1-0.3,0c-0.1,0-0.2,0.1-0.3,0.2c-0.1,0.1-0.1,0.2-0.1,0.3
		l0.4,2.2c0,0.1,0.1,0.2,0.2,0.3c0.1,0.1,0.2,0.1,0.3,0c0.1,0,0.2-0.1,0.3-0.2c0.1-0.1,0.1-0.2,0.1-0.3L51.5,70.2z"/>
	<linearGradient id="SVGID_33_" gradientUnits="userSpaceOnUse" x1="-6.794620e-02" y1="12.7754" x2="77.4321" y2="118.7754">
		<stop  offset="0" style="stop-color:#D7DADC"/>
		<stop  offset="6.383853e-03" style="stop-color:#D8DBDD"/>
		<stop  offset="0.2679" style="stop-color:#F4F5F6"/>
		<stop  offset="0.4185" style="stop-color:#FFFFFF"/>
		<stop  offset="1" style="stop-color:#959798"/>
	</linearGradient>
	<path class="st33" d="M43.1,70c-0.1,0-0.2,0-0.3,0.1c-0.1,0.1-0.1,0.2-0.2,0.3l-0.4,2.2c0,0.1,0,0.3,0.1,0.3
		c0.1,0.1,0.2,0.1,0.3,0.1c0.1,0,0.2,0,0.3-0.1c0.1-0.1,0.1-0.2,0.2-0.3l0.4-2.2c0-0.1,0-0.3-0.1-0.3C43.3,70,43.2,70,43.1,70z"/>
	<linearGradient id="SVGID_34_" gradientUnits="userSpaceOnUse" x1="13.9767" y1="2.5069" x2="91.4767" y2="108.507">
		<stop  offset="0" style="stop-color:#D7DADC"/>
		<stop  offset="6.383853e-03" style="stop-color:#D8DBDD"/>
		<stop  offset="0.2679" style="stop-color:#F4F5F6"/>
		<stop  offset="0.4185" style="stop-color:#FFFFFF"/>
		<stop  offset="1" style="stop-color:#959798"/>
	</linearGradient>
	<path class="st34" d="M46.9,13.6c-18.7,0-34,15.2-34,33.9c0,18.7,15.3,33.9,34,33.9c18.7,0,34-15.2,34-33.9
		C80.9,28.8,65.6,13.6,46.9,13.6z M46.9,80.8c-18.4,0-33.3-14.9-33.3-33.3s15-33.3,33.3-33.3s33.3,14.9,33.3,33.3
		S65.3,80.8,46.9,80.8z"/>
	<linearGradient id="SVGID_35_" gradientUnits="userSpaceOnUse" x1="-2.923" y1="14.8628" x2="74.577" y2="120.8628">
		<stop  offset="0" style="stop-color:#D7DADC"/>
		<stop  offset="6.383853e-03" style="stop-color:#D8DBDD"/>
		<stop  offset="0.2679" style="stop-color:#F4F5F6"/>
		<stop  offset="0.4185" style="stop-color:#FFFFFF"/>
		<stop  offset="1" style="stop-color:#959798"/>
	</linearGradient>
	<path class="st35" d="M32.5,60.9c-0.1-0.1-0.1-0.1-0.2-0.1c-0.1,0-0.2-0.1-0.2-0.1c-0.1,0-0.2,0-0.3,0c-0.1,0-0.2,0.1-0.3,0.2
		l-0.7,0.6l0.5,0.5l0.3-0.2l-0.2-0.2l0.4-0.4C31.9,61.1,32,61,32,61c0.1,0,0.1,0,0.2,0.1c0,0.1,0.1,0.1,0.1,0.2c0,0.1,0,0.1-0.1,0.2
		l-1.1,1c-0.1,0.1-0.1,0.1-0.2,0.1c-0.1,0-0.1,0-0.2-0.1c0-0.1-0.1-0.1-0.1-0.2c0-0.1,0-0.1,0.1-0.2l0.1-0.1l-0.3-0.3l-0.1,0.1
		c-0.1,0.1-0.1,0.2-0.2,0.3c0,0.1-0.1,0.2-0.1,0.3c0,0.1,0,0.2,0,0.2c0,0.1,0.1,0.1,0.1,0.2c0.1,0.1,0.1,0.1,0.2,0.1
		c0.1,0,0.2,0.1,0.2,0.1c0.1,0,0.2,0,0.3,0c0.1,0,0.2-0.1,0.3-0.2l1.1-1c0.1-0.1,0.1-0.2,0.2-0.3c0-0.1,0.1-0.2,0.1-0.3
		c0-0.1,0-0.2,0-0.2C32.6,61,32.6,60.9,32.5,60.9z"/>
	<linearGradient id="SVGID_36_" gradientUnits="userSpaceOnUse" x1="-3.0367" y1="14.946" x2="74.4633" y2="120.946">
		<stop  offset="0" style="stop-color:#D7DADC"/>
		<stop  offset="6.383853e-03" style="stop-color:#D8DBDD"/>
		<stop  offset="0.2679" style="stop-color:#F4F5F6"/>
		<stop  offset="0.4185" style="stop-color:#FFFFFF"/>
		<stop  offset="1" style="stop-color:#959798"/>
	</linearGradient>
	<polygon class="st36" points="30.8,58.8 30.4,59 30.9,59.6 28.9,61.1 29.2,61.4 31.5,59.7 	"/>
	<linearGradient id="SVGID_37_" gradientUnits="userSpaceOnUse" x1="-2.951" y1="14.8833" x2="74.549" y2="120.8833">
		<stop  offset="0" style="stop-color:#D7DADC"/>
		<stop  offset="6.383853e-03" style="stop-color:#D8DBDD"/>
		<stop  offset="0.2679" style="stop-color:#F4F5F6"/>
		<stop  offset="0.4185" style="stop-color:#FFFFFF"/>
		<stop  offset="1" style="stop-color:#959798"/>
	</linearGradient>
	<path class="st37" d="M30.2,57.9l-0.6,0.2l-0.3-0.5l0.5-0.4l-0.2-0.3l-2.1,2l0.2,0.3l2.8-1L30.2,57.9z M28.3,58.7L28.3,58.7
		l0.8-0.7l0.2,0.3L28.3,58.7z"/>
	<linearGradient id="SVGID_38_" gradientUnits="userSpaceOnUse" x1="-2.7118" y1="14.7085" x2="74.7882" y2="120.7085">
		<stop  offset="0" style="stop-color:#D7DADC"/>
		<stop  offset="6.383853e-03" style="stop-color:#D8DBDD"/>
		<stop  offset="0.2679" style="stop-color:#F4F5F6"/>
		<stop  offset="0.4185" style="stop-color:#FFFFFF"/>
		<stop  offset="1" style="stop-color:#959798"/>
	</linearGradient>
	<path class="st38" d="M27.9,56.5l0-0.3c0-0.1,0-0.1,0-0.1c0,0,0-0.1,0-0.1c0,0,0.1-0.1,0.1-0.1c0,0,0.1-0.1,0.2-0.1
		c0.1,0,0.1,0,0.2-0.1c0.1,0,0.1,0,0.1,0c0,0,0.1,0,0.1,0c0,0,0.1,0.1,0.1,0.1c0,0.1,0,0.2,0,0.2c0,0.1-0.1,0.1-0.2,0.1l-0.1,0.1
		l0.2,0.4l0.1-0.1c0.1,0,0.2-0.1,0.2-0.2c0.1-0.1,0.1-0.1,0.1-0.2c0-0.1,0-0.2,0-0.3c0-0.1,0-0.2-0.1-0.3c-0.1-0.1-0.1-0.2-0.2-0.3
		c-0.1-0.1-0.2-0.1-0.2-0.1c-0.1,0-0.2,0-0.3,0c-0.1,0-0.2,0.1-0.3,0.1c-0.1,0-0.2,0.1-0.2,0.1c-0.1,0-0.1,0.1-0.2,0.1
		c0,0.1-0.1,0.1-0.1,0.2c0,0.1,0,0.1,0,0.2l0,0.3c0,0.1,0,0.1,0,0.1c0,0,0,0.1,0,0.1c0,0,0,0-0.1,0.1c0,0-0.1,0-0.1,0.1
		c0,0-0.1,0-0.1,0c0,0-0.1,0-0.1,0c0,0-0.1,0-0.1,0c0,0-0.1-0.1-0.1-0.1c0-0.1,0-0.2,0-0.2c0-0.1,0.1-0.1,0.2-0.2l0.1,0L26.9,56
		l-0.2,0.1c-0.1,0-0.1,0.1-0.2,0.1c-0.1,0.1-0.1,0.1-0.1,0.2c0,0.1,0,0.2,0,0.3c0,0.1,0,0.2,0.1,0.3c0,0.1,0.1,0.2,0.2,0.2
		c0.1,0.1,0.2,0.1,0.2,0.1c0.1,0,0.2,0,0.3,0c0.1,0,0.2,0,0.3-0.1c0.2-0.1,0.3-0.2,0.4-0.3C27.9,56.9,27.9,56.7,27.9,56.5z"/>
	<linearGradient id="SVGID_39_" gradientUnits="userSpaceOnUse" x1="-2.261" y1="14.3788" x2="75.239" y2="120.3788">
		<stop  offset="0" style="stop-color:#D7DADC"/>
		<stop  offset="6.383853e-03" style="stop-color:#D8DBDD"/>
		<stop  offset="0.2679" style="stop-color:#F4F5F6"/>
		<stop  offset="0.4185" style="stop-color:#FFFFFF"/>
		<stop  offset="1" style="stop-color:#959798"/>
	</linearGradient>
	<path class="st39" d="M26.9,54.9c0.1-0.1,0.1-0.2,0.2-0.4l0-0.3c0-0.1,0-0.1,0-0.1c0,0,0-0.1,0-0.1c0,0,0.1,0,0.1-0.1
		c0,0,0.1,0,0.2-0.1c0.1,0,0.1,0,0.2,0c0.1,0,0.1,0,0.1,0c0,0,0.1,0,0.1,0.1c0,0,0.1,0.1,0.1,0.1c0,0.1,0,0.2,0,0.2
		c0,0.1-0.1,0.1-0.2,0.1l-0.1,0l0.1,0.4l0.1,0c0.1,0,0.2-0.1,0.2-0.1c0.1-0.1,0.1-0.1,0.2-0.2c0-0.1,0.1-0.2,0.1-0.2
		c0-0.1,0-0.2,0-0.3c0-0.1-0.1-0.2-0.2-0.3c-0.1-0.1-0.1-0.1-0.2-0.1c-0.1,0-0.2,0-0.3,0c-0.1,0-0.2,0-0.3,0.1
		c-0.1,0-0.2,0.1-0.3,0.1c-0.1,0-0.1,0.1-0.2,0.1c-0.1,0-0.1,0.1-0.1,0.2c0,0.1,0,0.1,0,0.2l0,0.3c0,0.1,0,0.1,0,0.1
		c0,0,0,0.1,0,0.1c0,0-0.1,0-0.1,0.1c0,0-0.1,0-0.1,0.1c0,0-0.1,0-0.1,0c0,0-0.1,0-0.1,0s-0.1,0-0.1,0c0,0-0.1-0.1-0.1-0.1
		c0-0.1,0-0.2,0-0.2c0.1-0.1,0.1-0.1,0.2-0.1l0.1,0l-0.1-0.4l-0.2,0.1c-0.1,0-0.1,0.1-0.2,0.1c-0.1,0.1-0.1,0.1-0.2,0.2
		c0,0.1-0.1,0.2-0.1,0.2c0,0.1,0,0.2,0,0.3c0,0.1,0.1,0.2,0.2,0.3c0.1,0.1,0.1,0.1,0.2,0.1c0.1,0,0.2,0,0.3,0c0.1,0,0.2,0,0.3-0.1
		C26.6,55.1,26.8,55,26.9,54.9z"/>
	<linearGradient id="SVGID_40_" gradientUnits="userSpaceOnUse" x1="-1.1497" y1="13.5663" x2="76.3503" y2="119.5663">
		<stop  offset="0" style="stop-color:#D7DADC"/>
		<stop  offset="6.383853e-03" style="stop-color:#D8DBDD"/>
		<stop  offset="0.2679" style="stop-color:#F4F5F6"/>
		<stop  offset="0.4185" style="stop-color:#FFFFFF"/>
		<stop  offset="1" style="stop-color:#959798"/>
	</linearGradient>
	<path class="st40" d="M27.2,51.1c0.1-0.1,0.1-0.1,0.2-0.2c0-0.1,0.1-0.1,0.1-0.2c0-0.1,0-0.2,0-0.2c0-0.1,0-0.2-0.1-0.2
		c0-0.1-0.1-0.1-0.2-0.2c-0.1,0-0.1-0.1-0.2-0.1c-0.1,0-0.2,0-0.3,0l-0.2,0l0.1,0.4l0.1,0c0.1,0,0.1,0,0.1,0c0,0,0.1,0,0.1,0
		c0,0,0,0,0.1,0.1c0,0,0,0.1,0,0.1c0,0.1,0,0.2-0.1,0.2c-0.1,0-0.1,0.1-0.2,0.1l-1.5,0.2c-0.1,0-0.2,0-0.2,0c-0.1,0-0.1-0.1-0.1-0.2
		c0-0.1,0-0.1,0.1-0.2c0.1-0.1,0.1-0.1,0.2-0.1l0.1,0l-0.1-0.4l-0.2,0c-0.1,0-0.2,0-0.3,0.1c-0.1,0-0.1,0.1-0.2,0.2
		c-0.1,0.1-0.1,0.1-0.1,0.2c0,0.1,0,0.2,0,0.3c0,0.1,0,0.2,0.1,0.2c0,0.1,0.1,0.1,0.2,0.2c0.1,0,0.1,0.1,0.2,0.1c0.1,0,0.2,0,0.3,0
		l1.6-0.2C27,51.2,27.1,51.2,27.2,51.1z"/>
	<linearGradient id="SVGID_41_" gradientUnits="userSpaceOnUse" x1="-0.2179" y1="12.8851" x2="77.2821" y2="118.8851">
		<stop  offset="0" style="stop-color:#D7DADC"/>
		<stop  offset="6.383853e-03" style="stop-color:#D8DBDD"/>
		<stop  offset="0.2679" style="stop-color:#F4F5F6"/>
		<stop  offset="0.4185" style="stop-color:#FFFFFF"/>
		<stop  offset="1" style="stop-color:#959798"/>
	</linearGradient>
	<path class="st41" d="M25.1,49.2l1.5-0.1c0.1,0,0.2,0,0.3-0.1c0.1,0,0.2-0.1,0.2-0.2c0.1-0.1,0.1-0.1,0.1-0.2c0-0.1,0-0.2,0-0.2
		c0-0.1,0-0.2-0.1-0.2c0-0.1-0.1-0.1-0.1-0.2c-0.1-0.1-0.1-0.1-0.2-0.1c-0.1,0-0.2,0-0.3,0L25,47.9c-0.1,0-0.2,0-0.3,0.1
		c-0.1,0-0.2,0.1-0.2,0.2c-0.1,0.1-0.1,0.1-0.1,0.2c0,0.1,0,0.2,0,0.2c0,0.1,0,0.2,0.1,0.2c0,0.1,0.1,0.1,0.1,0.2
		c0.1,0.1,0.1,0.1,0.2,0.1C24.9,49.2,25,49.2,25.1,49.2z M24.8,48.3c0-0.1,0.1-0.1,0.2-0.1l1.5-0.1c0.1,0,0.2,0,0.2,0.1
		c0,0.1,0.1,0.1,0.1,0.2c0,0.1,0,0.1-0.1,0.2c0,0.1-0.1,0.1-0.2,0.1l-1.5,0.1c-0.1,0-0.2,0-0.2-0.1c0-0.1-0.1-0.1-0.1-0.2
		C24.8,48.5,24.8,48.4,24.8,48.3z"/>
	<linearGradient id="SVGID_42_" gradientUnits="userSpaceOnUse" x1="1.0138" y1="11.9846" x2="78.5138" y2="117.9846">
		<stop  offset="0" style="stop-color:#D7DADC"/>
		<stop  offset="6.383853e-03" style="stop-color:#D8DBDD"/>
		<stop  offset="0.2679" style="stop-color:#F4F5F6"/>
		<stop  offset="0.4185" style="stop-color:#FFFFFF"/>
		<stop  offset="1" style="stop-color:#959798"/>
	</linearGradient>
	<path class="st42" d="M27.2,46.7l-0.6-0.2l0-0.5l0.6-0.1l0-0.4L24.4,46l0,0.3l2.8,0.8L27.2,46.7z M26.2,46.5l-1-0.3l0,0l1-0.1
		L26.2,46.5z"/>
	<linearGradient id="SVGID_43_" gradientUnits="userSpaceOnUse" x1="1.7486" y1="11.4473" x2="79.2486" y2="117.4473">
		<stop  offset="0" style="stop-color:#D7DADC"/>
		<stop  offset="6.383853e-03" style="stop-color:#D8DBDD"/>
		<stop  offset="0.2679" style="stop-color:#F4F5F6"/>
		<stop  offset="0.4185" style="stop-color:#FFFFFF"/>
		<stop  offset="1" style="stop-color:#959798"/>
	</linearGradient>
	<polygon class="st43" points="25,44.4 27.4,44.8 27.5,44.4 25,44 25.1,43.6 24.7,43.5 24.5,44.8 24.9,44.9 	"/>
	<linearGradient id="SVGID_44_" gradientUnits="userSpaceOnUse" x1="2.8787" y1="10.621" x2="80.3787" y2="116.621">
		<stop  offset="0" style="stop-color:#D7DADC"/>
		<stop  offset="6.383853e-03" style="stop-color:#D8DBDD"/>
		<stop  offset="0.2679" style="stop-color:#F4F5F6"/>
		<stop  offset="0.4185" style="stop-color:#FFFFFF"/>
		<stop  offset="1" style="stop-color:#959798"/>
	</linearGradient>
	<polygon class="st44" points="27.8,42.8 25,42.2 24.9,42.6 27.7,43.2 	"/>
	<linearGradient id="SVGID_45_" gradientUnits="userSpaceOnUse" x1="4.0973" y1="9.7301" x2="81.5973" y2="115.7301">
		<stop  offset="0" style="stop-color:#D7DADC"/>
		<stop  offset="6.383853e-03" style="stop-color:#D8DBDD"/>
		<stop  offset="0.2679" style="stop-color:#F4F5F6"/>
		<stop  offset="0.4185" style="stop-color:#FFFFFF"/>
		<stop  offset="1" style="stop-color:#959798"/>
	</linearGradient>
	<polygon class="st45" points="28.1,41.6 26.5,41 26.5,41 28.3,41 28.4,40.7 25.7,39.8 25.6,40.1 27.2,40.7 27.2,40.7 25.4,40.7 
		25.3,41.1 28,42 	"/>
	<linearGradient id="SVGID_46_" gradientUnits="userSpaceOnUse" x1="5.7112" y1="8.5501" x2="83.2112" y2="114.5501">
		<stop  offset="0" style="stop-color:#D7DADC"/>
		<stop  offset="6.383853e-03" style="stop-color:#D8DBDD"/>
		<stop  offset="0.2679" style="stop-color:#F4F5F6"/>
		<stop  offset="0.4185" style="stop-color:#FFFFFF"/>
		<stop  offset="1" style="stop-color:#959798"/>
	</linearGradient>
	<path class="st46" d="M26.5,38.8c0.1,0.1,0.1,0.1,0.3,0.2l1.4,0.6c0.1,0,0.2,0.1,0.3,0.1c0.1,0,0.2,0,0.3,0c0.1,0,0.1-0.1,0.2-0.1
		c0.1-0.1,0.1-0.1,0.1-0.2c0-0.1,0.1-0.1,0.1-0.2c0-0.1,0-0.2,0-0.2c0-0.1-0.1-0.2-0.1-0.2c-0.1-0.1-0.1-0.1-0.3-0.2L27.9,38
		l-0.3,0.6l0.3,0.2l0.1-0.3l0.5,0.2c0.1,0,0.1,0.1,0.2,0.2c0,0.1,0,0.1,0,0.2c0,0.1-0.1,0.1-0.1,0.1c-0.1,0-0.1,0-0.2,0l-1.4-0.6
		c-0.1,0-0.1-0.1-0.2-0.2c0-0.1,0-0.1,0-0.2c0-0.1,0.1-0.1,0.1-0.1c0.1,0,0.1,0,0.2,0l0.1,0.1l0.2-0.4l-0.1-0.1
		c-0.1,0-0.2-0.1-0.3-0.1c-0.1,0-0.2,0-0.3,0c-0.1,0-0.1,0.1-0.2,0.1c-0.1,0.1-0.1,0.1-0.1,0.2c0,0.1-0.1,0.1-0.1,0.2
		c0,0.1,0,0.2,0,0.2C26.4,38.6,26.4,38.7,26.5,38.8z"/>
	<linearGradient id="SVGID_47_" gradientUnits="userSpaceOnUse" x1="30.6383" y1="-9.6749" x2="108.1383" y2="96.3251">
		<stop  offset="0" style="stop-color:#D7DADC"/>
		<stop  offset="6.383853e-03" style="stop-color:#D8DBDD"/>
		<stop  offset="0.2679" style="stop-color:#F4F5F6"/>
		<stop  offset="0.4185" style="stop-color:#FFFFFF"/>
		<stop  offset="1" style="stop-color:#959798"/>
	</linearGradient>
	<path class="st47" d="M65.8,39.6c0.1,0,0.2-0.1,0.2-0.1c0.1,0,0.1-0.1,0.2-0.1c0-0.1,0.1-0.1,0.1-0.2c0-0.1,0-0.1,0-0.2l0-0.3
		c0-0.1,0-0.1,0-0.1c0,0,0-0.1,0-0.1c0,0,0,0,0.1-0.1c0,0,0.1,0,0.1-0.1c0,0,0.1,0,0.1,0c0,0,0.1,0,0.1,0c0,0,0.1,0,0.1,0
		c0,0,0.1,0.1,0.1,0.1c0,0.1,0,0.2,0,0.2c0,0.1-0.1,0.1-0.2,0.2l-0.1,0l0.2,0.4l0.2-0.1c0.1,0,0.1-0.1,0.2-0.1
		c0.1-0.1,0.1-0.1,0.1-0.2c0-0.1,0-0.2,0.1-0.3c0-0.1,0-0.2-0.1-0.3c0-0.1-0.1-0.2-0.2-0.2c-0.1-0.1-0.2-0.1-0.2-0.1
		c-0.1,0-0.2,0-0.3,0c-0.1,0-0.2,0-0.3,0.1c-0.2,0.1-0.3,0.2-0.4,0.3c-0.1,0.1-0.1,0.2-0.1,0.4l0,0.3c0,0.1,0,0.1,0,0.1
		c0,0,0,0.1,0,0.1c0,0-0.1,0.1-0.1,0.1c0,0-0.1,0.1-0.2,0.1c-0.1,0-0.1,0-0.2,0.1c-0.1,0-0.1,0-0.1,0c0,0-0.1,0-0.1,0
		c0,0-0.1-0.1-0.1-0.1c0-0.1,0-0.2,0-0.2c0-0.1,0.1-0.1,0.2-0.1l0.1-0.1l-0.2-0.4l-0.1,0.1c-0.1,0-0.2,0.1-0.2,0.2
		c-0.1,0.1-0.1,0.1-0.1,0.2c0,0.1,0,0.2,0,0.3c0,0.1,0,0.2,0.1,0.3c0.1,0.1,0.1,0.2,0.2,0.3c0.1,0.1,0.2,0.1,0.2,0.1
		c0.1,0,0.2,0,0.3,0C65.6,39.7,65.7,39.7,65.8,39.6z"/>
	<linearGradient id="SVGID_48_" gradientUnits="userSpaceOnUse" x1="30.3402" y1="-9.4569" x2="107.8402" y2="96.5431">
		<stop  offset="0" style="stop-color:#D7DADC"/>
		<stop  offset="6.383853e-03" style="stop-color:#D8DBDD"/>
		<stop  offset="0.2679" style="stop-color:#F4F5F6"/>
		<stop  offset="0.4185" style="stop-color:#FFFFFF"/>
		<stop  offset="1" style="stop-color:#959798"/>
	</linearGradient>
	<polygon class="st48" points="67.9,40.7 68.3,40.6 67.9,39.3 67.5,39.5 67.7,39.9 65.3,40.7 65.5,41.1 67.8,40.3 	"/>
	<linearGradient id="SVGID_49_" gradientUnits="userSpaceOnUse" x1="29.7944" y1="-9.0579" x2="107.2944" y2="96.9421">
		<stop  offset="0" style="stop-color:#D7DADC"/>
		<stop  offset="6.383853e-03" style="stop-color:#D8DBDD"/>
		<stop  offset="0.2679" style="stop-color:#F4F5F6"/>
		<stop  offset="0.4185" style="stop-color:#FFFFFF"/>
		<stop  offset="1" style="stop-color:#959798"/>
	</linearGradient>
	<path class="st49" d="M65.7,41.9l0.6-0.1l0.1,0.5l-0.6,0.3l0.1,0.4l2.6-1.3l-0.1-0.3l-2.9,0.2L65.7,41.9z M67.8,41.8L67.8,41.8
		l-1,0.5l-0.1-0.4L67.8,41.8z"/>
	<linearGradient id="SVGID_50_" gradientUnits="userSpaceOnUse" x1="29.2199" y1="-8.6378" x2="106.7199" y2="97.3622">
		<stop  offset="0" style="stop-color:#D7DADC"/>
		<stop  offset="6.383853e-03" style="stop-color:#D8DBDD"/>
		<stop  offset="0.2679" style="stop-color:#F4F5F6"/>
		<stop  offset="0.4185" style="stop-color:#FFFFFF"/>
		<stop  offset="1" style="stop-color:#959798"/>
	</linearGradient>
	<path class="st50" d="M66.2,43.9l1.2-0.2l0,0.2l-1.1,0.6l0.1,0.4l1.2-0.6c0.1,0.1,0.2,0.2,0.3,0.2c0.1,0,0.3,0,0.4,0
		c0.6-0.1,0.8-0.4,0.7-0.8L68.9,43l-2.8,0.5L66.2,43.9z M68.6,43.4l0,0.2c0,0.1,0,0.1,0,0.2c0,0,0,0.1-0.1,0.1c0,0-0.1,0.1-0.1,0.1
		c-0.1,0-0.1,0-0.2,0c-0.1,0-0.1,0-0.2,0c-0.1,0-0.1,0-0.1,0c0,0-0.1,0-0.1-0.1c0,0,0-0.1-0.1-0.2l0-0.2L68.6,43.4z"/>
	<linearGradient id="SVGID_51_" gradientUnits="userSpaceOnUse" x1="28.6619" y1="-8.2299" x2="106.1619" y2="97.7701">
		<stop  offset="0" style="stop-color:#D7DADC"/>
		<stop  offset="6.383853e-03" style="stop-color:#D8DBDD"/>
		<stop  offset="0.2679" style="stop-color:#F4F5F6"/>
		<stop  offset="0.4185" style="stop-color:#FFFFFF"/>
		<stop  offset="1" style="stop-color:#959798"/>
	</linearGradient>
	<polygon class="st51" points="68.9,45.3 66.4,45.5 66.5,45.9 68.9,45.7 69,46.1 69.4,46.1 69.2,44.8 68.9,44.8 	"/>
	<linearGradient id="SVGID_52_" gradientUnits="userSpaceOnUse" x1="27.9608" y1="-7.7173" x2="105.4608" y2="98.2827">
		<stop  offset="0" style="stop-color:#D7DADC"/>
		<stop  offset="6.383853e-03" style="stop-color:#D8DBDD"/>
		<stop  offset="0.2679" style="stop-color:#F4F5F6"/>
		<stop  offset="0.4185" style="stop-color:#FFFFFF"/>
		<stop  offset="1" style="stop-color:#959798"/>
	</linearGradient>
	<polygon class="st52" points="66.5,47.2 69.4,47.1 69.4,46.7 66.5,46.8 	"/>
	<linearGradient id="SVGID_53_" gradientUnits="userSpaceOnUse" x1="27.1843" y1="-7.1496" x2="104.6843" y2="98.8504">
		<stop  offset="0" style="stop-color:#D7DADC"/>
		<stop  offset="6.383853e-03" style="stop-color:#D8DBDD"/>
		<stop  offset="0.2679" style="stop-color:#F4F5F6"/>
		<stop  offset="0.4185" style="stop-color:#FFFFFF"/>
		<stop  offset="1" style="stop-color:#959798"/>
	</linearGradient>
	<polygon class="st53" points="66.5,48.2 68.2,48.3 68.2,48.3 66.5,48.8 66.5,49.2 69.3,49.3 69.3,48.9 67.6,48.8 67.6,48.8 
		69.4,48.3 69.4,48 66.5,47.8 	"/>
	<linearGradient id="SVGID_54_" gradientUnits="userSpaceOnUse" x1="26.0861" y1="-6.3466" x2="103.5861" y2="99.6534">
		<stop  offset="0" style="stop-color:#D7DADC"/>
		<stop  offset="6.383853e-03" style="stop-color:#D8DBDD"/>
		<stop  offset="0.2679" style="stop-color:#F4F5F6"/>
		<stop  offset="0.4185" style="stop-color:#FFFFFF"/>
		<stop  offset="1" style="stop-color:#959798"/>
	</linearGradient>
	<path class="st54" d="M69.1,50.3c0-0.1-0.1-0.1-0.2-0.2c-0.1-0.1-0.2-0.1-0.3-0.1l-1.5-0.2c-0.1,0-0.2,0-0.3,0
		c-0.1,0-0.2,0.1-0.2,0.1c-0.1,0.1-0.1,0.1-0.2,0.2c0,0.1-0.1,0.1-0.1,0.2c0,0.1,0,0.2,0,0.2c0,0.1,0.1,0.2,0.1,0.2
		c0,0.1,0.1,0.1,0.2,0.2c0.1,0.1,0.2,0.1,0.3,0.1l0.9,0.1l0.1-0.7l-0.4-0.1l0,0.3l-0.5-0.1c-0.1,0-0.2-0.1-0.2-0.1
		c0-0.1-0.1-0.1,0-0.2c0-0.1,0-0.1,0.1-0.2c0.1,0,0.1-0.1,0.2,0l1.5,0.2c0.1,0,0.2,0.1,0.2,0.1c0,0.1,0.1,0.1,0,0.2
		c0,0.1,0,0.1-0.1,0.2c-0.1,0-0.1,0.1-0.2,0l-0.1,0l-0.1,0.4l0.1,0c0.1,0,0.2,0,0.3,0c0.1,0,0.2-0.1,0.2-0.1
		c0.1-0.1,0.1-0.1,0.2-0.2c0-0.1,0.1-0.1,0.1-0.2c0-0.1,0-0.2,0-0.2C69.1,50.5,69.1,50.4,69.1,50.3z"/>
	<linearGradient id="SVGID_55_" gradientUnits="userSpaceOnUse" x1="24.5083" y1="-5.193" x2="102.0083" y2="100.807">
		<stop  offset="0" style="stop-color:#D7DADC"/>
		<stop  offset="6.383853e-03" style="stop-color:#D8DBDD"/>
		<stop  offset="0.2679" style="stop-color:#F4F5F6"/>
		<stop  offset="0.4185" style="stop-color:#FFFFFF"/>
		<stop  offset="1" style="stop-color:#959798"/>
	</linearGradient>
	<polygon class="st55" points="65.7,53 68.5,53.7 68.6,53.4 65.8,52.6 	"/>
	<linearGradient id="SVGID_56_" gradientUnits="userSpaceOnUse" x1="23.4593" y1="-4.4261" x2="100.9593" y2="101.5739">
		<stop  offset="0" style="stop-color:#D7DADC"/>
		<stop  offset="6.383853e-03" style="stop-color:#D8DBDD"/>
		<stop  offset="0.2679" style="stop-color:#F4F5F6"/>
		<stop  offset="0.4185" style="stop-color:#FFFFFF"/>
		<stop  offset="1" style="stop-color:#959798"/>
	</linearGradient>
	<polygon class="st56" points="65.4,53.9 67.1,54.5 67.1,54.5 65.2,54.5 65.1,54.8 67.8,55.8 67.9,55.5 66.3,54.9 66.3,54.9 
		68.1,54.9 68.3,54.5 65.6,53.6 	"/>
	<linearGradient id="SVGID_57_" gradientUnits="userSpaceOnUse" x1="21.2874" y1="-2.8381" x2="98.7874" y2="103.1618">
		<stop  offset="0" style="stop-color:#D7DADC"/>
		<stop  offset="6.383853e-03" style="stop-color:#D8DBDD"/>
		<stop  offset="0.2679" style="stop-color:#F4F5F6"/>
		<stop  offset="0.4185" style="stop-color:#FFFFFF"/>
		<stop  offset="1" style="stop-color:#959798"/>
	</linearGradient>
	<path class="st57" d="M66.7,57.5c-0.1-0.1-0.1-0.1-0.2-0.2l-0.2-0.1l-0.2,0.3l0.2,0.1c0.1,0,0.1,0.1,0.1,0.1c0,0,0,0.1,0,0.1
		c0,0,0,0.1-0.1,0.1c0,0-0.1,0-0.1,0c0,0-0.1,0-0.1,0c0,0-0.1,0-0.1,0c-0.1,0-0.1-0.1-0.2-0.1c0,0-0.1-0.1-0.1-0.1l-0.9-1.3
		l-0.3-0.2l-0.5,1l0.4,0.2l0.3-0.6l0.8,1.1c0,0.1,0.1,0.1,0.1,0.1c0,0,0.1,0.1,0.1,0.1c0,0,0.1,0.1,0.1,0.1c0,0,0.1,0.1,0.2,0.1
		c0.1,0,0.2,0.1,0.3,0.1c0.1,0,0.2,0,0.3,0c0.1,0,0.2,0,0.2-0.1c0.1,0,0.1-0.1,0.2-0.2c0-0.1,0.1-0.1,0.1-0.2c0-0.1,0-0.2,0-0.2
		C66.8,57.6,66.7,57.5,66.7,57.5z"/>
	<linearGradient id="SVGID_58_" gradientUnits="userSpaceOnUse" x1="20.0337" y1="-1.9215" x2="97.5337" y2="104.0785">
		<stop  offset="0" style="stop-color:#D7DADC"/>
		<stop  offset="6.383853e-03" style="stop-color:#D8DBDD"/>
		<stop  offset="0.2679" style="stop-color:#F4F5F6"/>
		<stop  offset="0.4185" style="stop-color:#FFFFFF"/>
		<stop  offset="1" style="stop-color:#959798"/>
	</linearGradient>
	<path class="st58" d="M65.8,59.1c0-0.1-0.1-0.1-0.2-0.2L64.2,58c-0.1-0.1-0.2-0.1-0.2-0.1c-0.1,0-0.2,0-0.2,0c-0.1,0-0.1,0-0.2,0.1
		c-0.1,0-0.1,0.1-0.2,0.2c0,0.1-0.1,0.1-0.1,0.2c0,0.1,0,0.1,0,0.2c0,0.1,0,0.1,0.1,0.2c0,0.1,0.1,0.1,0.2,0.2l1.4,0.9
		C65,60,65.1,60,65.2,60c0.1,0,0.2,0,0.2,0c0.1,0,0.1,0,0.2-0.1c0.1,0,0.1-0.1,0.2-0.2c0-0.1,0.1-0.1,0.1-0.2c0-0.1,0-0.1,0-0.2
		C65.8,59.3,65.8,59.2,65.8,59.1z M65.4,59.5c0,0-0.1,0.1-0.1,0.1c-0.1,0-0.1,0-0.2,0l-1.4-0.9c0,0-0.1-0.1-0.1-0.1
		c0-0.1,0-0.1,0-0.1c0,0,0.1-0.1,0.1-0.1c0.1,0,0.1,0,0.2,0l1.4,0.9c0,0,0.1,0.1,0.1,0.1C65.5,59.4,65.5,59.5,65.4,59.5z"/>
	<linearGradient id="SVGID_59_" gradientUnits="userSpaceOnUse" x1="18.6623" y1="-0.9188" x2="96.1623" y2="105.0812">
		<stop  offset="0" style="stop-color:#D7DADC"/>
		<stop  offset="6.383853e-03" style="stop-color:#D8DBDD"/>
		<stop  offset="0.2679" style="stop-color:#F4F5F6"/>
		<stop  offset="0.4185" style="stop-color:#FFFFFF"/>
		<stop  offset="1" style="stop-color:#959798"/>
	</linearGradient>
	<path class="st59" d="M64.5,60.5l-1.3-1c-0.1-0.1-0.2-0.1-0.2-0.1c-0.1,0-0.2,0-0.2,0c-0.1,0-0.1,0-0.2,0.1c-0.1,0-0.1,0.1-0.2,0.1
		c0,0.1-0.1,0.1-0.1,0.2c0,0.1,0,0.1,0,0.2c0,0.1,0,0.1,0.1,0.2c0,0.1,0.1,0.1,0.2,0.2l1.3,1c0.1,0.1,0.2,0.1,0.2,0.1
		c0.1,0,0.2,0,0.2,0c0.1,0,0.1,0,0.2-0.1c0.1,0,0.1-0.1,0.2-0.1c0-0.1,0.1-0.1,0.1-0.2c0-0.1,0-0.1,0-0.2c0-0.1,0-0.1-0.1-0.2
		C64.7,60.6,64.6,60.5,64.5,60.5z M64.3,61.1c0,0-0.1,0.1-0.1,0.1c-0.1,0-0.1,0-0.1,0l-1.3-1c0,0-0.1-0.1-0.1-0.1c0-0.1,0-0.1,0-0.1
		c0,0,0.1-0.1,0.1-0.1c0.1,0,0.1,0,0.1,0l1.3,1c0,0,0.1,0.1,0.1,0.1C64.4,61,64.4,61,64.3,61.1z"/>
	<linearGradient id="SVGID_60_" gradientUnits="userSpaceOnUse" x1="17.2543" y1="0.1106" x2="94.7543" y2="106.1106">
		<stop  offset="0" style="stop-color:#D7DADC"/>
		<stop  offset="6.383853e-03" style="stop-color:#D8DBDD"/>
		<stop  offset="0.2679" style="stop-color:#F4F5F6"/>
		<stop  offset="0.4185" style="stop-color:#FFFFFF"/>
		<stop  offset="1" style="stop-color:#959798"/>
	</linearGradient>
	<path class="st60" d="M63.4,61.9l-1.2-1.1c-0.1-0.1-0.1-0.1-0.2-0.1c-0.1,0-0.2,0-0.2,0c-0.1,0-0.1,0-0.2,0.1
		c-0.1,0-0.1,0.1-0.2,0.1c-0.1,0.1-0.1,0.1-0.1,0.2c0,0.1,0,0.1,0,0.2c0,0.1,0,0.2,0.1,0.2c0,0.1,0.1,0.1,0.2,0.2l1.2,1.1
		c0.1,0.1,0.1,0.1,0.2,0.1c0.1,0,0.2,0,0.2,0c0.1,0,0.1,0,0.2-0.1c0.1,0,0.1-0.1,0.2-0.1c0.1-0.1,0.1-0.1,0.1-0.2c0-0.1,0-0.1,0-0.2
		c0-0.1,0-0.2-0.1-0.2C63.5,62.1,63.4,62,63.4,61.9z M63.1,62.5c0,0-0.1,0.1-0.1,0.1c-0.1,0-0.1,0-0.1-0.1l-1.2-1.1
		c0,0-0.1-0.1-0.1-0.1c0-0.1,0-0.1,0.1-0.1c0,0,0.1-0.1,0.1-0.1c0.1,0,0.1,0,0.1,0.1l1.2,1.1c0,0,0.1,0.1,0.1,0.1
		C63.2,62.4,63.2,62.5,63.1,62.5z"/>
	<linearGradient id="SVGID_61_" gradientUnits="userSpaceOnUse" x1="3.9267" y1="9.8548" x2="81.4267" y2="115.8548">
		<stop  offset="0" style="stop-color:#D7DADC"/>
		<stop  offset="6.383853e-03" style="stop-color:#D8DBDD"/>
		<stop  offset="0.2679" style="stop-color:#F4F5F6"/>
		<stop  offset="0.4185" style="stop-color:#FFFFFF"/>
		<stop  offset="1" style="stop-color:#959798"/>
	</linearGradient>
	<path class="st61" d="M41.2,64.3c0.5-0.1,1.3-0.3,1.7-0.6c0.4-0.4,0.5-1,0.5-1.3c0-0.4-0.3-0.8-0.8-1.1L42.2,61
		c-0.4-0.3-0.5-0.4-0.6-0.4c-0.1-0.1-0.1-0.2-0.1-0.3c0-0.2,0.1-0.4,0.3-0.5c0.2-0.2,0.4-0.3,0.6-0.3c0.4,0,0.7,0.1,0.9,0.3
		c0,0,0,0,0.1,0c0,0,0,0,0.1,0c0.1-0.2,0.2-0.3,0.2-0.4c0-0.1-0.1-0.2-0.3-0.3c-0.2-0.1-0.4-0.1-0.7,0c-0.5,0.1-1,0.2-1.3,0.5
		c-0.3,0.3-0.5,0.6-0.5,1c0,0.3,0.2,0.7,0.7,1l0.4,0.3c0.5,0.3,0.7,0.6,0.7,0.8c0,0.2-0.1,0.4-0.3,0.6c-0.2,0.2-0.5,0.3-0.8,0.3
		c-0.3,0-0.6,0-0.8-0.2c-0.2-0.1-0.3-0.4-0.3-0.7c0,0,0,0,0-0.1c0,0-0.1,0-0.1,0c-0.3,0.2-0.6,0.7-0.6,0.9c0,0.3,0.1,0.5,0.4,0.6
		c0.2,0.1,0.4,0.1,0.6,0.1C40.9,64.3,41,64.3,41.2,64.3z"/>
	<linearGradient id="SVGID_62_" gradientUnits="userSpaceOnUse" x1="6.6553" y1="7.8599" x2="84.1564" y2="113.8614">
		<stop  offset="0" style="stop-color:#D7DADC"/>
		<stop  offset="6.383853e-03" style="stop-color:#D8DBDD"/>
		<stop  offset="0.2679" style="stop-color:#F4F5F6"/>
		<stop  offset="0.4185" style="stop-color:#FFFFFF"/>
		<stop  offset="1" style="stop-color:#959798"/>
	</linearGradient>
	<path class="st62" d="M53.5,61.8c-0.3,0.1-0.4,0.1-0.6,0c-0.2-0.2,0.2-0.6,0.4-0.9c0.2-0.2,0.3-0.3,0.2-0.4c0,0,0,0-0.1-0.1
		c-0.1,0-1.1-0.1-1.3,0c-0.2,0.1-0.3,0.3-0.3,0.3l0,0c-0.3,0.4-0.6,0.8-0.9,1c-0.3,0.3-0.6,0.4-0.9,0.5c-0.1,0-0.2,0-0.3,0
		c-0.1-0.1-0.1-0.2-0.1-0.3c0.4-0.1,0.7-0.2,1-0.4c0.3-0.2,0.4-0.4,0.4-0.6c0-0.1-0.1-0.3-0.2-0.3c-0.1-0.1-0.3-0.1-0.5-0.1
		c-0.4,0-0.7,0.2-0.9,0.5c-0.3,0.3-0.4,0.6-0.4,0.9c0,0.2,0.1,0.4,0.2,0.6c0.1,0.1,0.3,0.1,0.4,0.2c0.1,0,0.1,0,0.2,0
		c0.4,0,0.8-0.2,1.2-0.6c0.4-0.3,0.8-0.7,1-1.2c0.1-0.2,0.3-0.2,0.4-0.2c0.2,0,0.3,0.1,0.3,0.1c0,0-0.1,0.1-0.1,0.1
		c-0.1,0.1-0.3,0.4-0.5,0.8c-0.1,0.2,0,0.3,0.1,0.4c0.2,0.2,0.8,0.1,1.2-0.1c0.2-0.1,0.6,0,0.6,0.1c0.1,0.1-0.1,0.2-0.3,0.3
		c-0.5,0.2-2,0.4-4.1,0.7c-0.4,0-0.7,0.1-1,0.1c-0.7,0.1-1.2,0.1-1.8,0.2l0.2-0.6c0.1,0,0.3,0,0.4,0c0.4,0,0.7-0.2,1-0.5
		c0.3-0.3,0.4-0.6,0.4-0.9c0-0.2-0.1-0.4-0.2-0.5c-0.2-0.1-0.4-0.2-0.6-0.2c-0.2,0-0.4,0.1-0.6,0.3l0.1-0.5c0,0,0,0,0-0.1
		c0,0,0,0-0.1,0c-0.2,0.1-0.4,0.2-0.7,0.2c-0.2,0-0.3,0-0.4,0c0,0,0,0-0.1,0c0,0,0,0,0,0.1c0,0.1,0.1,0.2,0.2,0.3
		c0.1,0.1,0.2,0.1,0.3,0.1c0.1,0,0.1,0,0.2,0l-0.1,0.6c-0.5,0.8-0.8,1-1,1c0,0,0,0-0.1,0c0,0-0.1-0.1-0.1-0.3c0-0.2,0-0.3,0.1-0.5
		l0-0.1c0,0,0-0.1,0-0.1c0-0.1,0-0.1,0-0.1c0-0.1,0-0.1,0-0.1c0,0,0-0.1,0-0.1c0-0.1,0-0.1-0.1-0.1c0,0-0.1,0-0.2,0
		c-0.1,0-0.2,0-0.3,0.1c0,0,0,0,0,0c0,0,0,0,0,0c0,0,0,0,0,0c0,0.2-0.1,0.4-0.4,0.9c-0.4,0.6-0.7,0.8-0.8,0.8c-0.1,0-0.1,0-0.1,0
		c0,0,0-0.1,0-0.2c0-0.1,0-0.3,0.1-0.5l0-0.1c0,0,0-0.1,0-0.1c0.1-0.3,0.1-0.4,0.1-0.5c0-0.1,0-0.1-0.1-0.1c0,0-0.1,0-0.2,0l-0.3,0
		c0,0,0,0,0,0c0,0,0,0,0,0c0,0,0,0.1,0,0.1c0,0,0,0.1-0.1,0.2c-0.1,0.5-0.2,0.9-0.2,1c0,0.2,0.1,0.3,0.2,0.4
		c0.1,0.1,0.2,0.1,0.3,0.1c0,0,0.1,0,0.1,0c0.2,0,0.4-0.2,0.6-0.4c0.2-0.2,0.3-0.4,0.5-0.6c0,0,0,0,0,0c0,0.3,0.1,0.5,0.2,0.6
		c0.1,0.1,0.2,0.1,0.3,0.1c0.3,0,0.6-0.2,0.9-0.6l-0.3,1.1c-0.6,0.1-1.3,0.3-2.2,0.6c-2.7,0.7-3,1.1-3.4,1.4l-0.1,0.1
		c-0.1,0.1-0.1,0.2,0,0.3c0.2,0.3,1.1,0.6,1.7,0.7c0.1,0,0.2,0,0.3,0c0.2,0,0.4-0.2,0.7-0.4c0.5-0.5,1.4-1.2,2.9-1.7l-0.2,1
		c0,0.2-0.1,0.3-0.1,0.4c0,0.1,0,0.1,0.1,0.2c0,0,0.1,0,0.1,0c0,0,0,0,0.1,0c0.1,0,0.2,0,0.3-0.1c0,0,0,0,0,0c0,0,0,0,0,0
		c0,0,0-0.1,0-0.2c0-0.1,0-0.2,0-0.4l0.3-1.1c0.6-0.2,1.3-0.3,2.1-0.4c1.6-0.2,5.2-0.8,5.6-1.1c0.4-0.3,0.3-0.6,0.2-0.8
		c-0.2-0.2-0.5-0.3-0.8-0.2C53.7,61.7,53.6,61.7,53.5,61.8z M49.9,61.1c0.1-0.2,0.3-0.3,0.5-0.3c0,0,0,0,0.1,0c0,0,0,0,0.1,0
		c0,0,0,0.1,0,0.1c0,0.1-0.1,0.3-0.3,0.4c-0.2,0.1-0.4,0.2-0.6,0.3C49.6,61.4,49.7,61.2,49.9,61.1z M47.4,61.6
		c0.2-0.2,0.4-0.3,0.6-0.3c0.1,0,0.2,0,0.3,0.1c0.1,0.1,0.1,0.2,0.1,0.4c0,0.2-0.1,0.4-0.2,0.6c-0.2,0.2-0.3,0.3-0.6,0.3
		c-0.2,0-0.3,0-0.4-0.1L47.4,61.6z"/>
	<linearGradient id="SVGID_63_" gradientUnits="userSpaceOnUse" x1="12.8013" y1="3.3663" x2="90.3013" y2="109.3663">
		<stop  offset="0" style="stop-color:#D7DADC"/>
		<stop  offset="6.383853e-03" style="stop-color:#D8DBDD"/>
		<stop  offset="0.2679" style="stop-color:#F4F5F6"/>
		<stop  offset="0.4185" style="stop-color:#FFFFFF"/>
		<stop  offset="1" style="stop-color:#959798"/>
	</linearGradient>
	<path class="st63" d="M67.9,58.8c1.2-2.3,2.1-4.8,2.5-7.5c0.2-1.3,0.3-2.6,0.3-3.8v0c0-0.2,0-0.4,0-0.7c0-0.1,0-0.2,0-0.3
		c0,0,0,0,0,0c-0.4-8.6-5.3-16-12.4-19.8l3.3-6c-4.4-2.4-9.4-3.8-14.7-3.8c-5.3,0-10.3,1.3-14.7,3.7l3.3,6
		C28.4,30.4,23.4,37.8,23,46.4l0,0c0,0.1,0,0.2,0,0.3c0,0.2,0,0.4,0,0.7v0c0,1.3,0.1,2.6,0.3,3.8c0.4,2.7,1.3,5.2,2.5,7.5l-0.3,5.1
		l-4.7-0.2l0.3,0.5c2.7,4.2,6.4,7.7,10.7,10.1l0,0l-2.3-5l0,0c0,0,0-0.1,0-0.1l2.3-3.1c0.1,0.1,0.2,0.2,0.4,0.3l-2.1,2.8
		c4.8,3.7,10.6,5.7,16.7,5.7c6.1,0,11.9-2,16.8-5.8l-2.1-2.8c0.1-0.1,0.3-0.2,0.4-0.3l2.3,3c0,0,0,0,0,0.1l0,0l0,0c0,0,0,0,0,0.1
		l-2.3,5c4.3-2.4,8-5.9,10.7-10.1l0.3-0.5l-4.7,0.2L67.9,58.8z M55,21.1l1.3,0.5l0.9-1.1l-0.1,1.4l1.3,0.5l-1.3,0.4L57,24.1L56.2,23
		l-1.3,0.4l0.9-1.1L55,21.1z M51.4,20.3l0.7-1.2l0.2,1.4l1.4,0.2l-1.2,0.6l0.2,1.4l-1-1l-1.2,0.6l0.7-1.2l-1-1L51.4,20.3z M46.4,20
		l0.4-1.3l0.4,1.3h1.4l-1.1,0.8l0.4,1.3l-1.1-0.8l-1.1,0.8l0.4-1.3L45.1,20H46.4z M41.5,20.5l0.2-1.4l0.7,1.2l1.4-0.2l-1,1l0.7,1.2
		l-1.2-0.6l-1,1l0.2-1.4l-1.2-0.6L41.5,20.5z M35.3,22.4l1.3-0.5l-0.1-1.4l0.9,1.1l1.3-0.5L38,22.3l0.9,1.1L37.5,23l-0.8,1.2
		l-0.1-1.4L35.3,22.4z M33.4,30.8l2-1c0.2-0.1,0.4-0.3,0.5-0.6l0.7-1.6c0.5-1.3,1.9-2.2,3.4-2l2.4,0.2c0.2,0,0.4,0,0.5-0.1l2.4-1.5
		c0,0,0.1,0,0.1-0.1c0,0,0,0,0,0c0.2-0.1,0.4-0.2,0.5-0.3c0,0,0,0,0,0c0,0,0.1,0,0.1,0c0,0,0.1,0,0.1,0c0,0,0,0,0,0
		c0.1,0,0.1,0,0.2,0c0,0,0,0,0,0c0.1,0,0.1,0,0.2,0h0c0.1,0,0.2,0,0.3,0c0.1,0,0.2,0,0.3,0h0c0.1,0,0.1,0,0.2,0c0,0,0,0,0,0
		c0.1,0,0.1,0,0.2,0c0,0,0,0,0,0c0,0,0.1,0,0.1,0c0,0,0.1,0,0.1,0c0,0,0,0,0,0c0.2,0.1,0.4,0.1,0.5,0.3c0,0,0,0,0,0
		c0,0,0.1,0,0.1,0.1l2.4,1.5c0.2,0.1,0.4,0.1,0.5,0.1l2.4-0.2c1.4-0.1,2.8,0.7,3.4,2l0.7,1.6c0.1,0.3,0.3,0.5,0.5,0.6l2,1
		c1.3,0.7,2,2.2,1.7,3.6l-0.5,2.3c0.2,0.3,0.4,0.5,0.6,0.8l-0.1,0c1.2,1.8,2,3.7,2.5,5.8h-1.4c0,0.1-0.1,0.1-0.1,0.2l-0.1,0.2h1.8
		c0.1,0.4,0.2,0.9,0.2,1.3H62l-0.3,0.4H65c0.1,0.4,0.1,0.9,0.1,1.3h-3.8c0,0,0,0.1,0,0.1l0.1,0.3h3.7c0,0.4,0,0.9,0,1.3h-3.4
		l0.1,0.4h3.3c0,0.4-0.1,0.9-0.1,1.3h-3c0,0.1,0,0.3-0.1,0.4h3.1c-0.1,0.4-0.2,0.9-0.3,1.3h-3.4c-0.1,0.1-0.2,0.3-0.4,0.4h3.7
		c-0.1,0.4-0.3,0.9-0.4,1.3h-5.8l0,0c-0.2,0.1-0.3,0.2-0.4,0.4h6.1c-0.2,0.4-0.4,0.9-0.6,1.3h-6c0,0.1-0.1,0.3-0.1,0.4h5.9
		c-0.2,0.5-0.5,0.9-0.7,1.3h-6.3c-0.2,0.2-0.5,0.3-0.7,0.4h6.7c-0.3,0.5-0.6,0.9-0.9,1.3h-5.9l-1-1.8c1.1-0.1,2.1-0.9,2.4-2.1
		l0.1-0.6c0-0.1,0-0.2,0.1-0.2c0.2-0.5,0.5-0.9,1-1.1l1.8-0.9c1.1-0.5,1.7-1.8,1.4-3L60.6,47c-0.1-0.5,0-1.1,0.3-1.5l1.6-2.4
		c0.6-0.9,0.6-2,0-2.9l-1.4-2c-0.3-0.4-0.4-0.9-0.3-1.4l0.5-2.5c0.2-1.1-0.3-2.3-1.3-2.8l-2-1c-0.4-0.2-0.7-0.5-0.9-0.9l-0.7-1.6
		c-0.4-1.1-1.5-1.7-2.7-1.6l-2.4,0.2c-0.3,0-0.6,0-0.9-0.1l-2.4-1.6c-0.4-0.3-0.8-0.4-1.3-0.4c-0.5,0-0.9,0.1-1.3,0.4l-2.4,1.6
		c-0.3,0.1-0.6,0.2-0.9,0.1l-2.4-0.2c-1.1-0.1-2.2,0.5-2.7,1.6l-0.7,1.6c-0.2,0.4-0.5,0.7-0.9,0.9l-2,1c-1,0.5-1.6,1.7-1.3,2.8
		l0.5,2.5c0.1,0.5,0,1-0.3,1.4l-1.4,2c-0.6,0.9-0.6,2,0,2.9l1.6,2.4c0.3,0.4,0.4,1,0.3,1.5l-0.5,2.2c-0.3,1.2,0.3,2.4,1.4,3l1.8,0.9
		c0.5,0.2,0.8,0.6,1,1.1c0,0.1,0,0.2,0.1,0.2l0.1,0.6c0.2,1.2,1.3,2,2.5,2.1l-1,1.8h-5.9c-0.3-0.4-0.6-0.9-0.9-1.3h6.7
		c-0.3-0.1-0.5-0.2-0.7-0.4h-6.2c-0.3-0.4-0.5-0.9-0.7-1.3h5.9c-0.1-0.1-0.1-0.3-0.1-0.4h-5.9c-0.2-0.4-0.4-0.9-0.6-1.3h6.1
		c-0.1-0.2-0.3-0.3-0.4-0.4l0,0h-5.8c-0.2-0.4-0.3-0.9-0.4-1.3H33c-0.1-0.1-0.3-0.2-0.4-0.4h-3.4C29,51.4,29,51,28.9,50.5h3.1
		c0-0.1-0.1-0.3-0.1-0.4h-3c-0.1-0.4-0.1-0.9-0.1-1.3H32l0.1-0.4h-3.4c0-0.4,0-0.9,0-1.3h3.7l0.1-0.3c0,0,0-0.1,0-0.1h-3.8
		c0-0.4,0.1-0.9,0.1-1.3H32L31.7,45h-2.9c0.1-0.4,0.1-0.9,0.2-1.3h1.8l-0.1-0.2c0-0.1-0.1-0.1-0.1-0.2h-1.4c0.5-2.1,1.4-4,2.5-5.8
		l-0.1,0c0.2-0.3,0.4-0.5,0.6-0.8l-0.5-2.3C31.4,32.9,32.1,31.4,33.4,30.8z M57.5,62.5l-0.9-1.7h2.8C58.8,61.4,58.2,61.9,57.5,62.5
		C57.5,62.4,57.5,62.5,57.5,62.5z M56.4,60.4l-0.7-1.3H61c-0.4,0.5-0.8,0.9-1.2,1.3H56.4z M49.8,50.8c0.6-0.3,1.2-0.7,1.6-1
		c0.3-0.3,0.5-0.8,0.4-1.2c0.8,0.4,1.1,1.2,1.3,2.3c0.3,1.9-0.4,3.9-2.8,5.5l-0.2,0.1C51.2,54.2,50.6,52,49.8,50.8z M47.3,51
		c-0.1,0-0.3,0.1-0.4,0.1c-0.1,0-0.3,0-0.4-0.1c-0.8-0.3-2.8-1-3.6-1.8c-0.2-0.2-0.3-0.5-0.2-0.7l0.3-0.8l3.5-0.8c0.1,0,0.3,0,0.4,0
		c0.1,0,0.3,0,0.4,0l3.5,0.8l0.3,0.8c0.1,0.3,0,0.5-0.2,0.7C50,50,48.1,50.7,47.3,51z M48.5,57.5L47.6,58c-0.2,0.1-0.5,0.2-0.8,0.2
		c-0.3,0-0.5-0.1-0.8-0.2l-0.8-0.5c-2.4-2.7-0.7-5.3-0.1-6.1c0.4,0.2,0.8,0.3,1.1,0.4c0.2,0.1,0.4,0.1,0.6,0.1c0.2,0,0.4,0,0.6-0.1
		c0.3-0.1,0.7-0.2,1.1-0.4C49.2,52.1,50.9,54.8,48.5,57.5z M43.7,56.5l-0.2-0.1c-2.4-1.5-3.1-3.6-2.8-5.5c0.2-1.2,0.5-1.9,1.3-2.3
		c-0.1,0.4,0.1,0.9,0.4,1.2c0.4,0.4,1,0.7,1.6,1C43.2,52,42.6,54.2,43.7,56.5z M37.5,54c0-0.1,0-0.1,0-0.2c-0.7-2.7-0.4-5.4,0.9-7.7
		c0.7-1.3,2.1-2,3.1-2.3c0.4,0.5,0.8,1.4,0.9,2.8c-1.4,0.5-2.3,2-2.6,3.7c-0.2,1.6,0.2,3.9,2,5.7l-2.2,0.2c-1,0.1-1.8-0.5-2-1.5
		l-0.1-0.6c0,0,0,0,0,0l0,0C37.5,54.1,37.5,54,37.5,54z M36.4,52.5c-0.1-0.1-0.2-0.1-0.3-0.2l-1.8-0.9c-0.8-0.4-1.2-1.3-1-2.1
		l0.5-2.2c0,0,0,0,0,0l0,0c1-4.4,1.8-6.3,3.3-7.1c0.6-0.3,1.4-0.5,2.2-0.3c0,0.1,0,0.2,0,0.3c0,1.1,0.5,2.1,1.1,2.7
		c-1,0.4-2,1.4-2.7,2.6C36.6,47.3,36.1,50,36.4,52.5z M56,45.3c-0.7-1.3-1.7-2.2-2.7-2.6c0.5-0.7,1.1-1.6,1.1-2.7c0-0.1,0-0.2,0-0.3
		c0.8-0.2,1.6,0,2.2,0.3c1.5,0.8,2.3,2.7,3.3,7.1l0,0c0,0,0,0,0,0l0.5,2.2c0.2,0.8-0.2,1.7-1,2.1l-1.8,0.9c-0.1,0.1-0.2,0.1-0.3,0.2
		C57.6,50,57.2,47.3,56,45.3z M48.5,46.5L48.5,46.5l-1.1-0.1c-0.2,0-0.3,0-0.5,0c-0.2,0-0.3,0-0.5,0l-1.1,0.1l0,0l-2.6-2.2
		c-0.1-0.2-0.2-0.4-0.3-0.6c0.8-0.1,1.4-0.4,1.9-0.8c0.3,0.8,1.1,1.8,2.6,1.8c1.5,0,2.3-0.9,2.6-1.8c0.5,0.4,1.1,0.7,1.9,0.8
		c-0.1,0.2-0.2,0.4-0.3,0.6L48.5,46.5z M50.8,45.3c-0.1,0.4-0.2,0.9-0.2,1.5l-1.2-0.1L50.8,45.3z M44.3,46.6l-1.2,0.1
		c0-0.5-0.1-1-0.2-1.5L44.3,46.6z M44.6,38.9V40c0,2-1,3-2.9,3c0,0,0,0,0,0c-0.6-0.5-1.7-1.6-1.6-3.1c0-0.7,0.1-1,0.1-1.4
		c0.1-0.4,0.2-0.9,0.2-2c0.3,0.2,0.7,0.4,1.1,0.4c0.1,0,0.2,0,0.3,0c0.1,0.5,0.3,1,0.6,1.3C43.1,38.9,44.1,38.9,44.6,38.9z M42.6,37
		c1.6,0.2,2,0.7,2,1.3c-0.5,0.1-1.2,0.1-1.7-0.4C42.8,37.7,42.7,37.3,42.6,37z M45,42.7c0.6,0.2,1.4,0.4,1.9,0.4
		c0.5,0,1.3-0.2,1.9-0.4c-0.2,0.5-0.7,1.4-1.9,1.4C45.7,44.1,45.2,43.2,45,42.7z M49.1,40v-1.1c0.5,0,1.5-0.1,2.2-0.7
		c0.3-0.3,0.5-0.8,0.6-1.3c0.1,0,0.2,0,0.3,0c0.4,0,0.8-0.1,1.1-0.4c0,1,0.2,1.6,0.2,2c0.1,0.4,0.1,0.7,0.1,1.4c0,1.5-1,2.5-1.6,3.1
		c0,0,0,0,0,0C50.1,43,49.1,42,49.1,40z M49.1,38.3c0-0.6,0.4-1.2,2-1.3c-0.1,0.4-0.2,0.8-0.4,0.9C50.3,38.4,49.5,38.3,49.1,38.3z
		 M60.3,45.1c0,0-0.1,0.1-0.1,0.1c-1-3.6-2.2-5.8-3.7-6.6c-0.7-0.4-1.5-0.5-2.3-0.3c-0.1-0.3-0.1-0.5-0.2-0.9
		c2.2-1.3,4.8-1.2,6.5,1.2l1.4,2c0.4,0.6,0.4,1.5,0,2.1L60.3,45.1z M60.7,34.1l-0.5,2.5c0,0.1,0,0.2,0,0.4c-1.8-1.7-4-2.1-6.1-1
		c0-0.2,0-0.4,0-0.7c0-0.5-0.1-1-0.2-1.3c0.7-1.2,2.6-3.5,6-1.9C60.5,32.4,60.9,33.2,60.7,34.1z M52.8,32.8c-0.1,0-0.1-0.1-0.2-0.1
		c-0.6-0.3-1.4-0.4-2.2-0.4c0-0.6,0-1.7,0.5-2.7c0.9-1.9,1.8-2.5,3.9-2.6c0.5,0.2,0.9,0.5,1.1,1.1l0.7,1.6c0.1,0.4,0.4,0.7,0.7,0.9
		C54.8,30.5,53.3,32.1,52.8,32.8z M48.9,32.6c-0.4,0.1-0.8,0.3-1.2,0.6l-0.5-8.1c0.2,0,0.4,0.1,0.6,0.2l2.5,1.6
		c0.4,0.2,0.9,0.3,1.3,0.2l0.2,0C49.4,28.6,49,31.7,48.9,32.6z M47.9,33.9L47.9,33.9c0.9-0.6,2-0.9,2.9-0.9c0.5,0,1,0.1,1.4,0.3
		c0.7,0.4,1,1,1,1.9c0,0.5-0.4,1-1.1,1c-1,0-3.8,0-3.8,2.3V40c0,0.7,0.1,1.4,0.4,1.9c-0.6,0.3-1.5,0.7-1.9,0.7
		c-0.4,0-1.3-0.4-1.9-0.7c0.3-0.5,0.4-1.2,0.4-1.9v-1.6c0-2.3-2.8-2.3-3.8-2.3c-0.6,0-1.1-0.5-1.1-1c0-0.9,0.3-1.6,1-1.9
		c0.4-0.2,0.9-0.3,1.4-0.3c0.9,0,2,0.3,2.9,0.9v0c0.3,0.2,0.7,0.3,1.1,0.3C47.2,34.2,47.6,34.1,47.9,33.9z M46,33.2
		c-0.4-0.2-0.8-0.4-1.2-0.6c-0.1-0.9-0.5-4-2.9-5.5l0.2,0c0.4,0,0.9,0,1.3-0.2l2.5-1.6c0.2-0.1,0.4-0.2,0.6-0.2L46,33.2z M42.9,29.6
		c0.5,1,0.5,2.1,0.5,2.7c-0.8-0.1-1.6,0-2.2,0.4c-0.1,0-0.1,0.1-0.2,0.1c-0.5-0.7-2-2.2-4.4-2.2c0.3-0.3,0.5-0.6,0.7-0.9l0.7-1.6
		c0.2-0.5,0.6-0.9,1.1-1.1C41.1,27.1,42,27.7,42.9,29.6z M40,33.9c-0.1,0.4-0.2,0.8-0.2,1.3c0,0.3,0,0.5,0,0.7
		c-2.1-1.1-4.3-0.7-6.1,1c0-0.1,0-0.2,0-0.4l-0.5-2.5c-0.2-0.8,0.2-1.7,1-2C37.4,30.4,39.3,32.7,40,33.9z M33.2,38.6
		c1.7-2.4,4.3-2.5,6.5-1.2c0,0.4-0.1,0.7-0.1,0.9c-0.8-0.2-1.6-0.1-2.3,0.3c-1.5,0.8-2.7,3-3.7,6.6c0,0-0.1-0.1-0.1-0.1l-1.6-2.4
		c-0.4-0.6-0.4-1.4,0-2.1L33.2,38.6z M53.9,50.3c-0.3-1.6-1.2-3.1-2.6-3.7c0.1-1.4,0.5-2.3,0.9-2.8c1.1,0.3,2.4,1,3.1,2.3
		c1.3,2.3,1.7,5,0.9,7.7c0,0.1,0,0.1,0,0.2c0,0,0,0.1,0,0.1l0,0c0,0,0,0,0,0l-0.1,0.6c-0.2,0.9-1.1,1.6-2,1.5L51.9,56
		C53.7,54.2,54.2,51.9,53.9,50.3z M34,60.4c-0.4-0.4-0.8-0.9-1.2-1.3h5.4l-0.7,1.3H34z M37.3,60.8l-0.9,1.6c-0.7-0.5-1.3-1-2-1.6
		H37.3z M34.1,64.1l-1.5,2c-4.7-3.6-7.9-8.9-8.8-14.9c-0.9-5.5,0.3-10.9,2.9-15.3l4.2,1.9c-2.2,3.7-3.3,8.1-2.5,12.7
		c0.8,5,3.7,9.5,7.7,12.4L35,64.8C34.7,64.6,34.4,64.4,34.1,64.1z M37.2,71.4L36.9,72l-1.6-0.7l1.7-3.8l0.5,0.2l-1.5,3.3L37.2,71.4z
		 M41.1,69.6L40,69.2l-0.4,1.2l1,0.3l-0.2,0.5l-1-0.3l-0.4,1.2l1.1,0.3L40.1,73l-1.7-0.5l1.2-4l1.7,0.5L41.1,69.6z M44,70.5
		l-0.4,2.2c0,0.2-0.1,0.3-0.2,0.4c-0.1,0.1-0.2,0.2-0.3,0.3c-0.1,0.1-0.2,0.1-0.3,0.1c-0.1,0-0.2,0-0.4,0c-0.1,0-0.2-0.1-0.3-0.1
		c-0.1-0.1-0.2-0.1-0.3-0.2c-0.1-0.1-0.1-0.2-0.2-0.4c0-0.1,0-0.3,0-0.5l0.4-2.2c0-0.2,0.1-0.3,0.2-0.4c0.1-0.1,0.2-0.2,0.3-0.3
		c0.1-0.1,0.2-0.1,0.3-0.1c0.1,0,0.2,0,0.4,0c0.1,0,0.2,0.1,0.3,0.1c0.1,0.1,0.2,0.1,0.3,0.2c0.1,0.1,0.1,0.2,0.2,0.4
		C44,70.2,44,70.4,44,70.5z M49.1,73.2c0,0.1-0.1,0.2-0.2,0.3c-0.1,0.1-0.2,0.2-0.3,0.2c-0.1,0.1-0.2,0.1-0.4,0.1
		c-0.1,0-0.2,0-0.3,0c-0.1,0-0.2-0.1-0.3-0.1c-0.1-0.1-0.2-0.2-0.2-0.3c-0.1-0.1-0.1-0.3-0.1-0.5l-0.1-2.3c0-0.1,0-0.3,0.1-0.4
		c0-0.1,0.1-0.2,0.2-0.3c0.1-0.1,0.2-0.2,0.3-0.2c0.1-0.1,0.2-0.1,0.4-0.1c0.1,0,0.3,0,0.4,0.1c0.1,0,0.2,0.1,0.3,0.2
		c0.1,0.1,0.2,0.2,0.2,0.3c0.1,0.1,0.1,0.3,0.1,0.4l0,0.2l-0.6,0l0-0.2c0-0.1,0-0.2-0.1-0.3c-0.1-0.1-0.2-0.1-0.3-0.1
		c-0.1,0-0.2,0.1-0.3,0.2c0,0.1-0.1,0.2-0.1,0.4l0.1,2.1c0,0.1,0,0.2,0.1,0.3s0.2,0.1,0.3,0.1c0,0,0.1,0,0.1,0c0,0,0.1,0,0.1-0.1
		c0,0,0.1-0.1,0.1-0.1c0-0.1,0-0.1,0-0.2l0-0.2l0.6,0l0,0.3C49.1,73,49.1,73.1,49.1,73.2z M52.5,72.7c0,0.1-0.1,0.3-0.2,0.4
		c-0.1,0.1-0.2,0.2-0.3,0.2c-0.1,0.1-0.2,0.1-0.3,0.1c-0.1,0-0.2,0-0.4,0c-0.1,0-0.2-0.1-0.4-0.1c-0.1-0.1-0.2-0.2-0.3-0.3
		c-0.1-0.1-0.1-0.3-0.2-0.4l-0.4-2.2c0-0.2,0-0.3,0-0.5c0-0.1,0.1-0.3,0.2-0.4c0.1-0.1,0.2-0.2,0.3-0.2c0.1-0.1,0.2-0.1,0.3-0.1
		c0.1,0,0.2,0,0.4,0c0.1,0,0.2,0.1,0.4,0.1c0.1,0.1,0.2,0.2,0.3,0.3c0.1,0.1,0.1,0.3,0.2,0.4l0.4,2.2C52.6,72.5,52.6,72.6,52.5,72.7
		z M55.7,72.4l-0.4-0.8l-0.8,0.3l0.1,0.9L54,72.9l-0.4-4.3l0.5-0.2l2.2,3.7L55.7,72.4z M57.6,71.6l-1.5-3.3l-0.6,0.3l-0.2-0.5
		l1.8-0.8l0.2,0.5l-0.6,0.3l1.5,3.3L57.6,71.6z M46.9,68.5c-4.1,0-8-1.2-11.4-3.4l4.5-8.2l2-0.2c0.4,0,0.8,0.1,1.2,0.3l2.6,1.6
		c0.4,0.2,0.8,0.3,1.2,0.3c0.4,0,0.8-0.1,1.2-0.3l2.6-1.6c0.3-0.2,0.8-0.3,1.2-0.3l2.1,0.2l4.5,8.2C55,67.3,51,68.5,46.9,68.5z
		 M61.2,66l-1.5-2c-0.3,0.2-0.6,0.5-0.9,0.7l-1.1-1.9c4.1-2.9,6.9-7.3,7.7-12.4c0.7-4.6-0.3-9-2.5-12.7l4.2-1.9
		c2.6,4.5,3.7,9.8,2.9,15.3C69,57.1,65.8,62.4,61.2,66z"/>
</g>
<g>
	<g>
		<path class="st64" d="M97.1,25.1h4v24h7.9v4h-12V25.1z"/>
		<path class="st64" d="M116.7,25.1h12v3.8h-7.9v8.2h6.9v3.8h-6.9v8.2h7.9v4h-12V25.1z"/>
		<path class="st64" d="M136.1,31.7c0-1.1,0.2-2.1,0.6-3c0.4-0.9,0.9-1.6,1.6-2.1c0.6-0.6,1.4-1,2.2-1.3c0.8-0.3,1.6-0.4,2.4-0.4
			c0.8,0,1.6,0.1,2.4,0.4c0.8,0.3,1.5,0.7,2.2,1.3c0.6,0.6,1.2,1.3,1.6,2.1c0.4,0.9,0.6,1.9,0.6,3v14.8c0,1.2-0.2,2.2-0.6,3
			c-0.4,0.9-0.9,1.6-1.6,2.1c-0.6,0.6-1.4,1-2.2,1.3c-0.8,0.3-1.6,0.4-2.4,0.4c-0.8,0-1.6-0.1-2.4-0.4c-0.8-0.3-1.5-0.7-2.2-1.3
			c-0.6-0.6-1.2-1.3-1.6-2.1c-0.4-0.9-0.6-1.9-0.6-3V31.7z M140.1,46.5c0,1,0.3,1.7,0.8,2.1c0.5,0.5,1.2,0.7,1.9,0.7
			c0.7,0,1.4-0.2,1.9-0.7c0.5-0.5,0.8-1.2,0.8-2.1V31.7c0-1-0.3-1.7-0.8-2.1c-0.5-0.5-1.2-0.7-1.9-0.7c-0.7,0-1.4,0.2-1.9,0.7
			c-0.5,0.5-0.8,1.2-0.8,2.1V46.5z"/>
		<path class="st64" d="M178.5,46.8c0,0.9-0.2,1.7-0.5,2.5c-0.3,0.8-0.8,1.5-1.4,2.1c-0.6,0.6-1.3,1.1-2,1.4
			c-0.8,0.4-1.6,0.5-2.5,0.5c-0.8,0-1.5-0.1-2.3-0.3c-0.8-0.2-1.5-0.6-2.1-1.1c-0.6-0.5-1.1-1.2-1.6-2c-0.4-0.8-0.6-1.9-0.6-3.2
			V31.3c0-0.9,0.2-1.8,0.5-2.6c0.3-0.8,0.8-1.5,1.3-2c0.6-0.6,1.3-1,2.1-1.4c0.8-0.3,1.7-0.5,2.7-0.5c0.9,0,1.8,0.2,2.6,0.5
			c0.8,0.3,1.5,0.8,2,1.4c0.6,0.6,1,1.3,1.4,2.1c0.3,0.8,0.5,1.7,0.5,2.7v1.6h-4v-1.3c0-0.8-0.2-1.5-0.7-2c-0.4-0.6-1-0.9-1.8-0.9
			c-1,0-1.7,0.3-2,0.9c-0.3,0.6-0.5,1.4-0.5,2.3v14.3c0,0.8,0.2,1.5,0.5,2c0.4,0.6,1,0.8,1.9,0.8c0.3,0,0.5,0,0.8-0.1
			c0.3-0.1,0.6-0.2,0.8-0.5c0.2-0.2,0.5-0.5,0.6-0.9c0.2-0.4,0.2-0.8,0.2-1.4v-1.4h4V46.8z"/>
		<path class="st64" d="M186.5,31.7c0-1.1,0.2-2.1,0.6-3c0.4-0.9,0.9-1.6,1.6-2.1c0.6-0.6,1.4-1,2.2-1.3c0.8-0.3,1.6-0.4,2.4-0.4
			c0.8,0,1.6,0.1,2.4,0.4c0.8,0.3,1.5,0.7,2.2,1.3c0.6,0.6,1.2,1.3,1.6,2.1c0.4,0.9,0.6,1.9,0.6,3v14.8c0,1.2-0.2,2.2-0.6,3
			c-0.4,0.9-0.9,1.6-1.6,2.1c-0.6,0.6-1.4,1-2.2,1.3c-0.8,0.3-1.6,0.4-2.4,0.4c-0.8,0-1.6-0.1-2.4-0.4c-0.8-0.3-1.5-0.7-2.2-1.3
			c-0.6-0.6-1.2-1.3-1.6-2.1c-0.4-0.9-0.6-1.9-0.6-3V31.7z M190.5,46.5c0,1,0.3,1.7,0.8,2.1c0.5,0.5,1.2,0.7,1.9,0.7
			c0.7,0,1.4-0.2,1.9-0.7s0.8-1.2,0.8-2.1V31.7c0-1-0.3-1.7-0.8-2.1c-0.5-0.5-1.2-0.7-1.9-0.7c-0.7,0-1.4,0.2-1.9,0.7
			c-0.5,0.5-0.8,1.2-0.8,2.1V46.5z"/>
		<path class="st64" d="M213,25.1h3.3l6.3,28h-4l-1.2-6h-5.5l-1.2,6h-4L213,25.1z M214.7,33.1L214.7,33.1l-2,10.1h4L214.7,33.1z"/>
		<path class="st64" d="M232.2,28.8h-4.6v-3.8h13.3v3.8h-4.6v24.2h-4V28.8z"/>
	</g>
	<g>
		<path class="st64" d="M101.7,64.8h-1.6v-0.4c0-0.4-0.1-0.7-0.3-1c-0.2-0.3-0.5-0.4-0.9-0.4c-0.2,0-0.4,0-0.5,0.1
			c-0.1,0.1-0.3,0.2-0.3,0.3c-0.1,0.1-0.1,0.3-0.2,0.5c0,0.2,0,0.4,0,0.5c0,0.2,0,0.4,0,0.6c0,0.2,0.1,0.3,0.1,0.4
			c0.1,0.1,0.2,0.2,0.3,0.3c0.1,0.1,0.3,0.2,0.5,0.3l1.2,0.5c0.4,0.1,0.7,0.3,0.9,0.5c0.2,0.2,0.4,0.4,0.5,0.7
			c0.1,0.2,0.2,0.5,0.2,0.9c0,0.3,0.1,0.7,0.1,1.1c0,0.5,0,0.9-0.1,1.3c-0.1,0.4-0.3,0.8-0.5,1.1c-0.2,0.3-0.5,0.5-0.9,0.7
			c-0.4,0.2-0.8,0.3-1.3,0.3c-0.4,0-0.8-0.1-1.1-0.2s-0.6-0.3-0.9-0.6c-0.2-0.2-0.4-0.5-0.6-0.9c-0.1-0.3-0.2-0.7-0.2-1.1v-0.6h1.6
			v0.5c0,0.3,0.1,0.6,0.3,0.8c0.2,0.2,0.5,0.4,0.9,0.4c0.3,0,0.5,0,0.6-0.1c0.2-0.1,0.3-0.2,0.4-0.3s0.1-0.3,0.2-0.5
			c0-0.2,0-0.4,0-0.7c0-0.3,0-0.5,0-0.7c0-0.2-0.1-0.3-0.1-0.5c-0.1-0.1-0.2-0.2-0.3-0.3c-0.1-0.1-0.3-0.2-0.5-0.2L98,67.5
			c-0.7-0.3-1.2-0.7-1.4-1.1c-0.2-0.5-0.4-1.1-0.4-1.8c0-0.4,0.1-0.8,0.2-1.2c0.1-0.4,0.3-0.7,0.5-1c0.2-0.3,0.5-0.5,0.9-0.7
			c0.4-0.2,0.8-0.2,1.2-0.2c0.4,0,0.8,0.1,1.1,0.2c0.3,0.1,0.6,0.3,0.9,0.6c0.2,0.2,0.4,0.5,0.5,0.8c0.1,0.3,0.2,0.6,0.2,0.9V64.8z"
			/>
		<path class="st64" d="M110.1,70.4c0,0.4-0.1,0.7-0.2,1c-0.1,0.3-0.3,0.6-0.6,0.8c-0.2,0.2-0.5,0.4-0.8,0.6c-0.3,0.1-0.7,0.2-1,0.2
			c-0.4,0-0.7-0.1-1-0.2c-0.3-0.1-0.6-0.3-0.8-0.6c-0.2-0.2-0.4-0.5-0.6-0.8c-0.1-0.3-0.2-0.7-0.2-1v-8.8h1.6v8.6
			c0,0.4,0.1,0.7,0.3,0.9s0.4,0.3,0.7,0.3s0.5-0.1,0.7-0.3s0.3-0.5,0.3-0.9v-8.6h1.6V70.4z"/>
		<path class="st64" d="M113.5,61.6h2.4c0.4,0,0.8,0.1,1.2,0.2s0.6,0.3,0.9,0.6c0.3,0.3,0.5,0.6,0.6,1c0.1,0.4,0.2,0.9,0.2,1.6
			c0,0.5,0,0.9-0.1,1.3c-0.1,0.4-0.2,0.7-0.4,1c-0.2,0.4-0.5,0.7-0.9,0.9c-0.4,0.2-0.9,0.3-1.5,0.3h-0.8v4.4h-1.6V61.6z M115.2,66.9
			h0.8c0.3,0,0.6,0,0.8-0.1c0.2-0.1,0.3-0.2,0.4-0.4c0.1-0.2,0.1-0.4,0.2-0.6c0-0.2,0-0.5,0-0.8c0-0.3,0-0.5,0-0.8
			c0-0.2-0.1-0.4-0.1-0.6c-0.1-0.2-0.2-0.3-0.4-0.4c-0.2-0.1-0.4-0.2-0.7-0.2h-0.8V66.9z"/>
		<path class="st64" d="M121.9,61.6h4.8v1.5h-3.2v3.3h2.8v1.5h-2.8v3.3h3.2v1.6h-4.8V61.6z"/>
		<path class="st64" d="M129.7,61.6h2.6c1.9,0,2.9,1.1,2.9,3.3c0,0.7-0.1,1.2-0.3,1.7c-0.2,0.5-0.6,0.9-1.1,1.1l1.8,5.2h-1.7
			l-1.5-4.8h-1v4.8h-1.6V61.6z M131.4,66.6h0.9c0.3,0,0.5,0,0.7-0.1c0.2-0.1,0.3-0.2,0.4-0.3c0.1-0.1,0.2-0.3,0.2-0.5
			c0-0.2,0-0.5,0-0.8s0-0.5,0-0.8c0-0.2-0.1-0.4-0.2-0.6c-0.1-0.2-0.2-0.3-0.4-0.3s-0.4-0.1-0.7-0.1h-0.8V66.6z"/>
		<path class="st64" d="M143.2,64.2c0-0.5,0.1-0.9,0.2-1.2c0.2-0.4,0.4-0.6,0.6-0.9c0.3-0.2,0.6-0.4,0.9-0.5c0.3-0.1,0.7-0.2,1-0.2
			c0.3,0,0.7,0.1,1,0.2c0.3,0.1,0.6,0.3,0.9,0.5c0.3,0.2,0.5,0.5,0.6,0.9c0.2,0.4,0.2,0.8,0.2,1.2v0.6H147v-0.6
			c0-0.4-0.1-0.7-0.3-0.9c-0.2-0.2-0.5-0.3-0.8-0.3c-0.3,0-0.6,0.1-0.8,0.3c-0.2,0.2-0.3,0.5-0.3,0.9v6c0,0.4,0.1,0.7,0.3,0.9
			c0.2,0.2,0.5,0.3,0.8,0.3c0.3,0,0.6-0.1,0.8-0.3c0.2-0.2,0.3-0.5,0.3-0.9v-2.1h-1.3v-1.4h2.9v3.6c0,0.5-0.1,0.9-0.2,1.2
			c-0.2,0.3-0.4,0.6-0.6,0.9c-0.3,0.2-0.6,0.4-0.9,0.5c-0.3,0.1-0.7,0.2-1,0.2c-0.3,0-0.7-0.1-1-0.2c-0.3-0.1-0.6-0.3-0.9-0.5
			c-0.3-0.2-0.5-0.5-0.6-0.9c-0.2-0.3-0.2-0.8-0.2-1.2V64.2z"/>
		<path class="st64" d="M152,61.6h1.6v9.7h3.2v1.6H152V61.6z"/>
		<path class="st64" d="M161.6,61.6h1.4l2.5,11.3h-1.6l-0.5-2.4h-2.2l-0.5,2.4h-1.6L161.6,61.6z M162.3,64.8L162.3,64.8l-0.8,4.1
			h1.6L162.3,64.8z"/>
		<path class="st64" d="M173.4,64.8h-1.6v-0.4c0-0.4-0.1-0.7-0.3-1c-0.2-0.3-0.5-0.4-0.9-0.4c-0.2,0-0.4,0-0.5,0.1
			c-0.1,0.1-0.3,0.2-0.3,0.3c-0.1,0.1-0.1,0.3-0.2,0.5c0,0.2,0,0.4,0,0.5c0,0.2,0,0.4,0,0.6c0,0.2,0.1,0.3,0.1,0.4
			c0.1,0.1,0.2,0.2,0.3,0.3c0.1,0.1,0.3,0.2,0.5,0.3l1.2,0.5c0.4,0.1,0.7,0.3,0.9,0.5c0.2,0.2,0.4,0.4,0.5,0.7
			c0.1,0.2,0.2,0.5,0.2,0.9c0,0.3,0.1,0.7,0.1,1.1c0,0.5,0,0.9-0.1,1.3c-0.1,0.4-0.3,0.8-0.5,1.1c-0.2,0.3-0.5,0.5-0.9,0.7
			c-0.4,0.2-0.8,0.3-1.3,0.3c-0.4,0-0.8-0.1-1.1-0.2c-0.3-0.1-0.6-0.3-0.9-0.6c-0.2-0.2-0.4-0.5-0.6-0.9c-0.1-0.3-0.2-0.7-0.2-1.1
			v-0.6h1.6v0.5c0,0.3,0.1,0.6,0.3,0.8c0.2,0.2,0.5,0.4,0.9,0.4c0.3,0,0.5,0,0.6-0.1c0.2-0.1,0.3-0.2,0.4-0.3
			c0.1-0.1,0.1-0.3,0.2-0.5c0-0.2,0-0.4,0-0.7c0-0.3,0-0.5,0-0.7c0-0.2-0.1-0.3-0.1-0.5c-0.1-0.1-0.2-0.2-0.3-0.3
			c-0.1-0.1-0.3-0.2-0.5-0.2l-1.2-0.5c-0.7-0.3-1.2-0.7-1.4-1.1c-0.2-0.5-0.4-1.1-0.4-1.8c0-0.4,0.1-0.8,0.2-1.2
			c0.1-0.4,0.3-0.7,0.5-1c0.2-0.3,0.5-0.5,0.9-0.7c0.4-0.2,0.8-0.2,1.2-0.2c0.4,0,0.8,0.1,1.1,0.2c0.3,0.1,0.6,0.3,0.9,0.6
			c0.2,0.2,0.4,0.5,0.5,0.8c0.1,0.3,0.2,0.6,0.2,0.9V64.8z"/>
		<path class="st64" d="M181.8,64.8h-1.6v-0.4c0-0.4-0.1-0.7-0.3-1c-0.2-0.3-0.5-0.4-0.9-0.4c-0.2,0-0.4,0-0.5,0.1
			c-0.1,0.1-0.3,0.2-0.3,0.3c-0.1,0.1-0.1,0.3-0.2,0.5c0,0.2,0,0.4,0,0.5c0,0.2,0,0.4,0,0.6c0,0.2,0.1,0.3,0.1,0.4
			c0.1,0.1,0.2,0.2,0.3,0.3c0.1,0.1,0.3,0.2,0.5,0.3l1.2,0.5c0.4,0.1,0.7,0.3,0.9,0.5c0.2,0.2,0.4,0.4,0.5,0.7
			c0.1,0.2,0.2,0.5,0.2,0.9c0,0.3,0.1,0.7,0.1,1.1c0,0.5,0,0.9-0.1,1.3c-0.1,0.4-0.3,0.8-0.5,1.1c-0.2,0.3-0.5,0.5-0.9,0.7
			c-0.4,0.2-0.8,0.3-1.3,0.3c-0.4,0-0.8-0.1-1.1-0.2c-0.3-0.1-0.6-0.3-0.9-0.6c-0.2-0.2-0.4-0.5-0.6-0.9c-0.1-0.3-0.2-0.7-0.2-1.1
			v-0.6h1.6v0.5c0,0.3,0.1,0.6,0.3,0.8c0.2,0.2,0.5,0.4,0.9,0.4c0.3,0,0.5,0,0.6-0.1c0.2-0.1,0.3-0.2,0.4-0.3s0.1-0.3,0.2-0.5
			c0-0.2,0-0.4,0-0.7c0-0.3,0-0.5,0-0.7c0-0.2-0.1-0.3-0.1-0.5s-0.2-0.2-0.3-0.3c-0.1-0.1-0.3-0.2-0.5-0.2l-1.2-0.5
			c-0.7-0.3-1.2-0.7-1.4-1.1c-0.2-0.5-0.4-1.1-0.4-1.8c0-0.4,0.1-0.8,0.2-1.2c0.1-0.4,0.3-0.7,0.5-1c0.2-0.3,0.5-0.5,0.9-0.7
			c0.4-0.2,0.8-0.2,1.2-0.2c0.4,0,0.8,0.1,1.1,0.2c0.3,0.1,0.6,0.3,0.9,0.6c0.2,0.2,0.4,0.5,0.5,0.8c0.1,0.3,0.2,0.6,0.2,0.9V64.8z"
			/>
		<path class="st64" d="M195,70.4c0,0.4-0.1,0.7-0.2,1c-0.1,0.3-0.3,0.6-0.5,0.8c-0.2,0.2-0.5,0.4-0.8,0.6c-0.3,0.1-0.6,0.2-1,0.2
			c-0.3,0-0.6,0-0.9-0.1c-0.3-0.1-0.6-0.2-0.9-0.4c-0.3-0.2-0.5-0.5-0.6-0.8c-0.2-0.3-0.2-0.8-0.2-1.3v-6.2c0-0.4,0.1-0.7,0.2-1
			c0.1-0.3,0.3-0.6,0.5-0.8c0.2-0.2,0.5-0.4,0.8-0.5c0.3-0.1,0.7-0.2,1.1-0.2c0.4,0,0.7,0.1,1,0.2c0.3,0.1,0.6,0.3,0.8,0.6
			c0.2,0.2,0.4,0.5,0.5,0.9c0.1,0.3,0.2,0.7,0.2,1.1v0.6h-1.6v-0.5c0-0.3-0.1-0.6-0.3-0.8c-0.2-0.2-0.4-0.4-0.7-0.4
			c-0.4,0-0.7,0.1-0.8,0.4c-0.1,0.2-0.2,0.6-0.2,0.9v5.8c0,0.3,0.1,0.6,0.2,0.8c0.1,0.2,0.4,0.3,0.8,0.3c0.1,0,0.2,0,0.3-0.1
			c0.1,0,0.2-0.1,0.3-0.2c0.1-0.1,0.2-0.2,0.2-0.4c0.1-0.1,0.1-0.3,0.1-0.6v-0.6h1.6V70.4z"/>
		<path class="st64" d="M198.1,64.2c0-0.5,0.1-0.9,0.2-1.2c0.2-0.4,0.4-0.6,0.6-0.9c0.3-0.2,0.6-0.4,0.9-0.5c0.3-0.1,0.6-0.2,1-0.2
			s0.7,0.1,1,0.2c0.3,0.1,0.6,0.3,0.9,0.5c0.3,0.2,0.5,0.5,0.6,0.9c0.2,0.4,0.2,0.8,0.2,1.2v6c0,0.5-0.1,0.9-0.2,1.2
			c-0.2,0.3-0.4,0.6-0.6,0.9c-0.3,0.2-0.6,0.4-0.9,0.5c-0.3,0.1-0.7,0.2-1,0.2s-0.7-0.1-1-0.2c-0.3-0.1-0.6-0.3-0.9-0.5
			c-0.3-0.2-0.5-0.5-0.6-0.9c-0.2-0.3-0.2-0.8-0.2-1.2V64.2z M199.7,70.2c0,0.4,0.1,0.7,0.3,0.9c0.2,0.2,0.5,0.3,0.8,0.3
			c0.3,0,0.6-0.1,0.8-0.3c0.2-0.2,0.3-0.5,0.3-0.9v-6c0-0.4-0.1-0.7-0.3-0.9c-0.2-0.2-0.5-0.3-0.8-0.3c-0.3,0-0.6,0.1-0.8,0.3
			c-0.2,0.2-0.3,0.5-0.3,0.9V70.2z"/>
		<path class="st64" d="M208.7,61.6h1.4l2.5,11.3H211l-0.5-2.4h-2.2l-0.5,2.4h-1.6L208.7,61.6z M209.4,64.8L209.4,64.8l-0.8,4.1h1.6
			L209.4,64.8z"/>
		<path class="st64" d="M216.3,63.1h-1.9v-1.5h5.4v1.5H218v9.8h-1.6V63.1z"/>
		<path class="st64" d="M222.5,61.6h1.6v11.3h-1.6V61.6z"/>
		<path class="st64" d="M227.6,61.6h1.6l2.5,6.8h0v-6.8h1.6v11.3h-1.5l-2.5-6.8h0v6.8h-1.6V61.6z"/>
		<path class="st64" d="M236.5,64.2c0-0.5,0.1-0.9,0.2-1.2c0.2-0.4,0.4-0.6,0.6-0.9c0.3-0.2,0.6-0.4,0.9-0.5c0.3-0.1,0.6-0.2,1-0.2
			s0.7,0.1,1,0.2c0.3,0.1,0.6,0.3,0.9,0.5c0.3,0.2,0.5,0.5,0.6,0.9c0.2,0.4,0.2,0.8,0.2,1.2v0.6h-1.6v-0.6c0-0.4-0.1-0.7-0.3-0.9
			c-0.2-0.2-0.5-0.3-0.8-0.3c-0.3,0-0.6,0.1-0.8,0.3c-0.2,0.2-0.3,0.5-0.3,0.9v6c0,0.4,0.1,0.7,0.3,0.9c0.2,0.2,0.5,0.3,0.8,0.3
			c0.3,0,0.6-0.1,0.8-0.3c0.2-0.2,0.3-0.5,0.3-0.9v-2.1h-1.3v-1.4h2.9v3.6c0,0.5-0.1,0.9-0.2,1.2c-0.2,0.3-0.4,0.6-0.6,0.9
			c-0.3,0.2-0.6,0.4-0.9,0.5c-0.3,0.1-0.7,0.2-1,0.2s-0.7-0.1-1-0.2c-0.3-0.1-0.6-0.3-0.9-0.5c-0.3-0.2-0.5-0.5-0.6-0.9
			c-0.2-0.3-0.2-0.8-0.2-1.2V64.2z"/>
	</g>
</g>
</svg>
